<mxfile host="app.diagrams.net" agent="Mozilla/5.0 (Windows NT 10.0; Win64; x64) AppleWebKit/537.36 (KHTML, like Gecko) Chrome/141.0.0.0 Safari/537.36" version="28.2.8">
  <diagram name="Page-1" id="c37626ed-c26b-45fb-9056-f9ebc6bb27b6">
    <mxGraphModel dx="719" dy="363" grid="1" gridSize="10" guides="1" tooltips="1" connect="1" arrows="1" fold="1" page="1" pageScale="1" pageWidth="1100" pageHeight="850" background="none" math="0" shadow="0">
      <root>
        <mxCell id="0" />
        <mxCell id="1" parent="0" />
        <mxCell id="AjF2ncFrVsrN5MG7hm1J-93" value="" style="whiteSpace=wrap;html=1;fontColor=light-dark(#000000,#7E7E7E);fillStyle=auto;dashed=1;dashPattern=1 2;strokeColor=light-dark(#000000,#A1A1A1);" vertex="1" parent="1">
          <mxGeometry x="860" y="823.75" width="140" height="266.25" as="geometry" />
        </mxCell>
        <mxCell id="AjF2ncFrVsrN5MG7hm1J-134" value="" style="whiteSpace=wrap;html=1;fontColor=light-dark(#000000,#7E7E7E);fillStyle=auto;dashed=1;dashPattern=1 2;strokeColor=light-dark(#000000,#A1A1A1);" vertex="1" parent="1">
          <mxGeometry x="870" y="990" width="50" height="70" as="geometry" />
        </mxCell>
        <mxCell id="AjF2ncFrVsrN5MG7hm1J-132" value="" style="whiteSpace=wrap;html=1;fontColor=light-dark(#000000,#7E7E7E);fillStyle=auto;dashed=1;dashPattern=1 2;strokeColor=light-dark(#000000,#A1A1A1);" vertex="1" parent="1">
          <mxGeometry x="945" y="990" width="50" height="70" as="geometry" />
        </mxCell>
        <mxCell id="AjF2ncFrVsrN5MG7hm1J-91" value="" style="whiteSpace=wrap;html=1;fontColor=light-dark(#000000,#7E7E7E);fillStyle=auto;dashed=1;dashPattern=1 2;strokeColor=light-dark(#000000,#A1A1A1);" vertex="1" parent="1">
          <mxGeometry x="1130" y="833.75" width="100" height="256.25" as="geometry" />
        </mxCell>
        <mxCell id="AjF2ncFrVsrN5MG7hm1J-131" value="" style="whiteSpace=wrap;html=1;fontColor=light-dark(#000000,#7E7E7E);fillStyle=auto;dashed=1;dashPattern=1 2;strokeColor=light-dark(#000000,#A1A1A1);" vertex="1" parent="1">
          <mxGeometry x="1161.5" y="980" width="65" height="70" as="geometry" />
        </mxCell>
        <mxCell id="AjF2ncFrVsrN5MG7hm1J-88" value="" style="whiteSpace=wrap;html=1;fontColor=light-dark(#000000,#7E7E7E);dashed=1;dashPattern=1 2;fillStyle=auto;strokeColor=light-dark(#000000,#A1A1A1);align=center;verticalAlign=middle;fontFamily=Helvetica;fontSize=12;fillColor=default;" vertex="1" parent="1">
          <mxGeometry x="680" y="470.5" width="330" height="139.5" as="geometry" />
        </mxCell>
        <mxCell id="AjF2ncFrVsrN5MG7hm1J-128" value="" style="whiteSpace=wrap;html=1;fontColor=light-dark(#000000,#7E7E7E);fillStyle=auto;dashed=1;dashPattern=1 2;strokeColor=light-dark(#000000,#A1A1A1);" vertex="1" parent="1">
          <mxGeometry x="717.5" y="501" width="65" height="70" as="geometry" />
        </mxCell>
        <mxCell id="AjF2ncFrVsrN5MG7hm1J-90" value="" style="whiteSpace=wrap;html=1;fontColor=light-dark(#000000,#7E7E7E);fillStyle=auto;dashed=1;dashPattern=1 2;strokeColor=light-dark(#000000,#A1A1A1);" vertex="1" parent="1">
          <mxGeometry x="1300" y="636" width="294" height="324" as="geometry" />
        </mxCell>
        <mxCell id="AjF2ncFrVsrN5MG7hm1J-114" value="" style="whiteSpace=wrap;html=1;fontColor=light-dark(#000000,#7E7E7E);fillStyle=auto;dashed=1;dashPattern=1 2;strokeColor=light-dark(#000000,#A1A1A1);" vertex="1" parent="1">
          <mxGeometry x="1350" y="870" width="65" height="70" as="geometry" />
        </mxCell>
        <mxCell id="AjF2ncFrVsrN5MG7hm1J-124" value="" style="whiteSpace=wrap;html=1;fontColor=light-dark(#000000,#7E7E7E);fillStyle=auto;dashed=1;dashPattern=1 2;strokeColor=light-dark(#000000,#A1A1A1);" vertex="1" parent="1">
          <mxGeometry x="1476" y="871.5" width="50" height="70" as="geometry" />
        </mxCell>
        <mxCell id="AjF2ncFrVsrN5MG7hm1J-125" value="" style="whiteSpace=wrap;html=1;fontColor=light-dark(#000000,#7E7E7E);fillStyle=auto;dashed=1;dashPattern=1 2;strokeColor=light-dark(#000000,#A1A1A1);" vertex="1" parent="1">
          <mxGeometry x="1420" y="870" width="50" height="70" as="geometry" />
        </mxCell>
        <mxCell id="AjF2ncFrVsrN5MG7hm1J-89" value="" style="whiteSpace=wrap;html=1;fontColor=light-dark(#000000,#7E7E7E);fillStyle=auto;dashed=1;dashPattern=1 2;strokeColor=light-dark(#000000,#A1A1A1);" vertex="1" parent="1">
          <mxGeometry x="546" y="640" width="294" height="340" as="geometry" />
        </mxCell>
        <mxCell id="AjF2ncFrVsrN5MG7hm1J-118" value="" style="whiteSpace=wrap;html=1;fontColor=light-dark(#000000,#7E7E7E);fillStyle=auto;dashed=1;dashPattern=1 2;strokeColor=light-dark(#000000,#A1A1A1);" vertex="1" parent="1">
          <mxGeometry x="720" y="869.25" width="65" height="70" as="geometry" />
        </mxCell>
        <mxCell id="AjF2ncFrVsrN5MG7hm1J-119" value="" style="whiteSpace=wrap;html=1;fontColor=light-dark(#000000,#7E7E7E);fillStyle=auto;dashed=1;dashPattern=1 2;strokeColor=light-dark(#000000,#A1A1A1);" vertex="1" parent="1">
          <mxGeometry x="650.5" y="870" width="65" height="70" as="geometry" />
        </mxCell>
        <mxCell id="AjF2ncFrVsrN5MG7hm1J-120" value="" style="whiteSpace=wrap;html=1;fontColor=light-dark(#000000,#7E7E7E);fillStyle=auto;dashed=1;dashPattern=1 2;strokeColor=light-dark(#000000,#A1A1A1);" vertex="1" parent="1">
          <mxGeometry x="581" y="871.5" width="65" height="70" as="geometry" />
        </mxCell>
        <mxCell id="AjF2ncFrVsrN5MG7hm1J-92" value="" style="whiteSpace=wrap;html=1;fontColor=light-dark(#000000,#7E7E7E);fillStyle=auto;dashed=1;dashPattern=1 2;strokeColor=light-dark(#000000,#A1A1A1);" vertex="1" parent="1">
          <mxGeometry x="1100" y="300" width="240" height="280" as="geometry" />
        </mxCell>
        <mxCell id="AjF2ncFrVsrN5MG7hm1J-111" value="" style="whiteSpace=wrap;html=1;fontColor=light-dark(#000000,#7E7E7E);fillStyle=auto;dashed=1;dashPattern=1 2;strokeColor=light-dark(#000000,#A1A1A1);" vertex="1" parent="1">
          <mxGeometry x="1110" y="306" width="96" height="89" as="geometry" />
        </mxCell>
        <mxCell id="QZPthKrVkkydhestqFor-15" style="edgeStyle=none;html=1;labelBackgroundColor=none;startFill=0;endArrow=none;endFill=0;strokeWidth=2;fontFamily=Verdana;fontSize=12;exitX=0.16;exitY=0.55;exitDx=0;exitDy=0;exitPerimeter=0;entryX=1;entryY=0.5;entryDx=0;entryDy=0;entryPerimeter=0;" parent="1" source="QZPthKrVkkydhestqFor-14" target="Fr8ylSRvn2xFsTFbEYaB-4" edge="1">
          <mxGeometry relative="1" as="geometry">
            <mxPoint x="1490" y="140" as="sourcePoint" />
            <mxPoint x="1339" y="141.5" as="targetPoint" />
          </mxGeometry>
        </mxCell>
        <mxCell id="AjF2ncFrVsrN5MG7hm1J-109" value="" style="whiteSpace=wrap;html=1;fontColor=light-dark(#000000,#7E7E7E);fillStyle=auto;dashed=1;dashPattern=1 2;strokeColor=light-dark(#000000,#A1A1A1);" vertex="1" parent="1">
          <mxGeometry x="1210" y="306" width="123" height="89" as="geometry" />
        </mxCell>
        <mxCell id="1c7a67bf8fd3230f-38" style="edgeStyle=none;html=1;labelBackgroundColor=none;startFill=0;endArrow=none;endFill=0;strokeWidth=2;fontFamily=Verdana;fontSize=12;entryX=0.5;entryY=0;entryDx=0;entryDy=0;entryPerimeter=0;" parent="1" source="Fr8ylSRvn2xFsTFbEYaB-6" target="Fr8ylSRvn2xFsTFbEYaB-5" edge="1">
          <mxGeometry relative="1" as="geometry">
            <mxPoint x="968.3294117647058" y="392" as="sourcePoint" />
            <mxPoint x="1023.670588235294" y="476" as="targetPoint" />
          </mxGeometry>
        </mxCell>
        <mxCell id="1c7a67bf8fd3230f-39" style="edgeStyle=none;html=1;labelBackgroundColor=none;startFill=0;endArrow=none;endFill=0;strokeWidth=2;fontFamily=Verdana;fontSize=12;exitX=0.085;exitY=0.915;exitDx=0;exitDy=0;exitPerimeter=0;entryX=0.985;entryY=0.015;entryDx=0;entryDy=0;entryPerimeter=0;" parent="1" source="Fr8ylSRvn2xFsTFbEYaB-4" target="Fr8ylSRvn2xFsTFbEYaB-5" edge="1">
          <mxGeometry relative="1" as="geometry">
            <mxPoint x="1190" y="350" as="sourcePoint" />
            <mxPoint x="1074.7647058823532" y="476" as="targetPoint" />
          </mxGeometry>
        </mxCell>
        <mxCell id="1c7a67bf8fd3230f-40" style="edgeStyle=none;html=1;labelBackgroundColor=none;startFill=0;endArrow=none;endFill=0;strokeWidth=2;fontFamily=Verdana;fontSize=12;entryX=0.504;entryY=0.144;entryDx=0;entryDy=0;entryPerimeter=0;exitX=0.36;exitY=0.868;exitDx=0;exitDy=0;exitPerimeter=0;" parent="1" source="Fr8ylSRvn2xFsTFbEYaB-5" target="Fr8ylSRvn2xFsTFbEYaB-2" edge="1">
          <mxGeometry relative="1" as="geometry">
            <mxPoint x="1220" y="450" as="sourcePoint" />
            <mxPoint x="1084" y="502" as="targetPoint" />
          </mxGeometry>
        </mxCell>
        <mxCell id="1c7a67bf8fd3230f-41" style="edgeStyle=none;html=1;labelBackgroundColor=none;startFill=0;endArrow=none;endFill=0;strokeWidth=2;fontFamily=Verdana;fontSize=12;entryX=0.5;entryY=1;entryDx=0;entryDy=0;exitX=0.5;exitY=0;exitDx=0;exitDy=0;exitPerimeter=0;strokeColor=light-dark(#000000,#0000FF);" parent="1" source="1c7a67bf8fd3230f-46" target="Fr8ylSRvn2xFsTFbEYaB-8" edge="1">
          <mxGeometry relative="1" as="geometry">
            <mxPoint x="596" y="735.5" as="sourcePoint" />
            <mxPoint x="752" y="735.5" as="targetPoint" />
          </mxGeometry>
        </mxCell>
        <mxCell id="1c7a67bf8fd3230f-50" style="edgeStyle=none;html=1;labelBackgroundColor=none;startFill=0;endArrow=none;endFill=0;strokeWidth=2;fontFamily=Verdana;fontSize=12;exitX=0.5;exitY=1;exitDx=0;exitDy=0;exitPerimeter=0;" parent="1" source="Fr8ylSRvn2xFsTFbEYaB-2" target="1c7a67bf8fd3230f-47" edge="1">
          <mxGeometry relative="1" as="geometry">
            <mxPoint x="1084" y="553.3652173913044" as="sourcePoint" />
          </mxGeometry>
        </mxCell>
        <mxCell id="1c7a67bf8fd3230f-64" style="edgeStyle=none;html=1;labelBackgroundColor=none;startFill=0;endArrow=none;endFill=0;strokeWidth=2;fontFamily=Verdana;fontSize=12;exitX=0.097;exitY=0.536;exitDx=0;exitDy=0;exitPerimeter=0;entryX=1;entryY=1;entryDx=0;entryDy=0;strokeColor=light-dark(#000000,#0000FF);" parent="1" source="1c7a67bf8fd3230f-47" target="Fr8ylSRvn2xFsTFbEYaB-8" edge="1">
          <mxGeometry relative="1" as="geometry">
            <mxPoint x="1031" y="552.0016030534351" as="sourcePoint" />
            <mxPoint x="912" y="537.4672519083969" as="targetPoint" />
          </mxGeometry>
        </mxCell>
        <mxCell id="1c7a67bf8fd3230f-65" style="edgeStyle=none;html=1;labelBackgroundColor=none;startFill=0;endArrow=none;endFill=0;strokeWidth=2;fontFamily=Verdana;fontSize=12;entryX=1;entryY=0.5;entryDx=0;entryDy=0;entryPerimeter=0;exitX=0.085;exitY=0.915;exitDx=0;exitDy=0;exitPerimeter=0;" parent="1" source="QZPthKrVkkydhestqFor-5" target="hdmpvEqsEqpy68kl_CeC-2" edge="1">
          <mxGeometry relative="1" as="geometry">
            <mxPoint x="1290" y="720" as="sourcePoint" />
            <mxPoint x="600" y="681.7737563451776" as="targetPoint" />
          </mxGeometry>
        </mxCell>
        <mxCell id="1c7a67bf8fd3230f-42" style="edgeStyle=none;html=1;labelBackgroundColor=none;startFill=0;endArrow=none;endFill=0;strokeWidth=2;fontFamily=Verdana;fontSize=12;exitX=0.5;exitY=1;exitDx=0;exitDy=0;exitPerimeter=0;entryX=0.5;entryY=0;entryDx=0;entryDy=0;entryPerimeter=0;rounded=1;strokeColor=light-dark(#000000,#FFFFFF);align=center;verticalAlign=middle;fontColor=default;" parent="1" source="Fr8ylSRvn2xFsTFbEYaB-26" target="Fr8ylSRvn2xFsTFbEYaB-29" edge="1">
          <mxGeometry relative="1" as="geometry">
            <mxPoint x="1327" y="430.92" as="sourcePoint" />
            <mxPoint x="1395" y="430.92" as="targetPoint" />
          </mxGeometry>
        </mxCell>
        <mxCell id="1c7a67bf8fd3230f-44" style="edgeStyle=none;html=1;labelBackgroundColor=none;startFill=0;endArrow=none;endFill=0;strokeWidth=2;fontFamily=Verdana;fontSize=12;exitX=1;exitY=0.5;exitDx=0;exitDy=0;exitPerimeter=0;strokeColor=light-dark(#000000,#FF0080);" parent="1" source="Fr8ylSRvn2xFsTFbEYaB-26" target="Fr8ylSRvn2xFsTFbEYaB-28" edge="1">
          <mxGeometry relative="1" as="geometry">
            <mxPoint x="1435" y="437.151884057971" as="sourcePoint" />
            <mxPoint x="1534" y="467.9997101449275" as="targetPoint" />
          </mxGeometry>
        </mxCell>
        <mxCell id="1c7a67bf8fd3230f-56" style="edgeStyle=none;html=1;labelBackgroundColor=none;startFill=0;endArrow=none;endFill=0;strokeWidth=2;fontFamily=Verdana;fontSize=12;exitX=0.88;exitY=0.9;exitDx=0;exitDy=0;exitPerimeter=0;entryX=0.09;entryY=0.04;entryDx=0;entryDy=0;entryPerimeter=0;" parent="1" source="hdmpvEqsEqpy68kl_CeC-1" target="Fr8ylSRvn2xFsTFbEYaB-16" edge="1">
          <mxGeometry relative="1" as="geometry">
            <mxPoint x="852.8635935144916" y="980.0049640664995" as="sourcePoint" />
            <mxPoint x="828.814859619551" y="1060.7" as="targetPoint" />
          </mxGeometry>
        </mxCell>
        <mxCell id="1c7a67bf8fd3230f-57" style="edgeStyle=none;html=1;labelBackgroundColor=none;startFill=0;endArrow=none;endFill=0;strokeWidth=2;fontFamily=Verdana;fontSize=12;entryX=0.5;entryY=0;entryDx=0;entryDy=0;entryPerimeter=0;" parent="1" source="hdmpvEqsEqpy68kl_CeC-2" target="Fr8ylSRvn2xFsTFbEYaB-16" edge="1">
          <mxGeometry relative="1" as="geometry">
            <mxPoint x="1149.3330042371085" y="980.6901271132549" as="sourcePoint" />
            <mxPoint x="1153.6694487110944" y="1060.7" as="targetPoint" />
          </mxGeometry>
        </mxCell>
        <mxCell id="1c7a67bf8fd3230f-63" style="edgeStyle=none;html=1;labelBackgroundColor=none;startFill=0;endArrow=none;endFill=0;strokeWidth=2;fontFamily=Verdana;fontSize=12;exitX=0.5;exitY=1;exitDx=0;exitDy=0;exitPerimeter=0;entryX=0.5;entryY=0;entryDx=0;entryDy=0;entryPerimeter=0;" parent="1" source="AjF2ncFrVsrN5MG7hm1J-38" target="QZPthKrVkkydhestqFor-1" edge="1">
          <mxGeometry relative="1" as="geometry">
            <mxPoint x="1340" y="920" as="sourcePoint" />
            <mxPoint x="1419.6559608056614" y="1060.7" as="targetPoint" />
          </mxGeometry>
        </mxCell>
        <mxCell id="1c7a67bf8fd3230f-60" style="edgeStyle=none;html=1;labelBackgroundColor=none;startFill=0;endArrow=none;endFill=0;strokeWidth=2;fontFamily=Verdana;fontSize=12;" parent="1" edge="1">
          <mxGeometry relative="1" as="geometry">
            <mxPoint x="1173.1655629139073" y="1211.7" as="targetPoint" />
          </mxGeometry>
        </mxCell>
        <mxCell id="1c7a67bf8fd3230f-69" style="html=1;labelBackgroundColor=none;startFill=0;endArrow=none;endFill=0;strokeWidth=2;fontFamily=Verdana;fontSize=12;exitX=0.12;exitY=0.9;exitDx=0;exitDy=0;exitPerimeter=0;entryX=0.915;entryY=0.085;entryDx=0;entryDy=0;entryPerimeter=0;" parent="1" source="AjF2ncFrVsrN5MG7hm1J-39" target="QZPthKrVkkydhestqFor-1" edge="1">
          <mxGeometry relative="1" as="geometry">
            <mxPoint x="1091.68" y="889.9995157384989" as="sourcePoint" />
            <mxPoint x="950.0011920529802" y="993.6" as="targetPoint" />
          </mxGeometry>
        </mxCell>
        <mxCell id="1c7a67bf8fd3230f-70" style="html=1;labelBackgroundColor=none;startFill=0;endArrow=none;endFill=0;strokeWidth=2;fontFamily=Verdana;fontSize=12;entryX=0.915;entryY=0.915;entryDx=0;entryDy=0;entryPerimeter=0;exitX=0.5;exitY=0;exitDx=0;exitDy=0;exitPerimeter=0;strokeColor=light-dark(#000000,#FF3399);" parent="1" source="Fr8ylSRvn2xFsTFbEYaB-26" target="QZPthKrVkkydhestqFor-5" edge="1">
          <mxGeometry relative="1" as="geometry">
            <mxPoint x="1360" y="810" as="sourcePoint" />
            <mxPoint x="1330.0017374517374" y="989.77" as="targetPoint" />
          </mxGeometry>
        </mxCell>
        <mxCell id="1c7a67bf8fd3230f-59" style="edgeStyle=none;html=1;labelBackgroundColor=none;startFill=0;endArrow=none;endFill=0;strokeWidth=2;fontFamily=Verdana;fontSize=12;exitX=0.88;exitY=0.9;exitDx=0;exitDy=0;exitPerimeter=0;entryX=0.015;entryY=0.015;entryDx=0;entryDy=0;entryPerimeter=0;" parent="1" source="hdmpvEqsEqpy68kl_CeC-2" target="Fr8ylSRvn2xFsTFbEYaB-42" edge="1">
          <mxGeometry relative="1" as="geometry">
            <mxPoint x="1476" y="1143.3065573770493" as="sourcePoint" />
          </mxGeometry>
        </mxCell>
        <mxCell id="1c7a67bf8fd3230f-67" style="edgeStyle=none;html=1;labelBackgroundColor=none;startFill=0;endArrow=none;endFill=0;strokeWidth=2;fontFamily=Verdana;fontSize=12;exitX=0.085;exitY=0.915;exitDx=0;exitDy=0;exitPerimeter=0;entryX=0.985;entryY=0.015;entryDx=0;entryDy=0;entryPerimeter=0;strokeColor=light-dark(#000000,#80FF00);" parent="1" source="QZPthKrVkkydhestqFor-4" target="Fr8ylSRvn2xFsTFbEYaB-33" edge="1">
          <mxGeometry relative="1" as="geometry">
            <mxPoint x="817" y="910" as="sourcePoint" />
            <mxPoint x="664" y="910" as="targetPoint" />
          </mxGeometry>
        </mxCell>
        <mxCell id="1c7a67bf8fd3230f-79" style="edgeStyle=none;html=1;labelBackgroundColor=none;startFill=0;endArrow=none;endFill=0;strokeWidth=2;fontFamily=Verdana;fontSize=12;exitX=0.75;exitY=1;exitDx=0;exitDy=0;entryX=0.5;entryY=0;entryDx=0;entryDy=0;entryPerimeter=0;exitPerimeter=0;" parent="1" source="QZPthKrVkkydhestqFor-1" target="Fr8ylSRvn2xFsTFbEYaB-45" edge="1">
          <mxGeometry relative="1" as="geometry">
            <mxPoint x="1037.8175235109718" y="1090" as="sourcePoint" />
            <mxPoint x="975.0024764890284" y="1323" as="targetPoint" />
          </mxGeometry>
        </mxCell>
        <mxCell id="1c7a67bf8fd3230f-76" style="edgeStyle=none;html=1;labelBackgroundColor=none;startFill=0;endArrow=none;endFill=0;strokeWidth=2;fontFamily=Verdana;fontSize=12;exitX=0.25;exitY=1;exitDx=0;exitDy=0;entryX=0.5;entryY=0;entryDx=0;entryDy=0;entryPerimeter=0;exitPerimeter=0;" parent="1" source="QZPthKrVkkydhestqFor-1" target="Fr8ylSRvn2xFsTFbEYaB-44" edge="1">
          <mxGeometry relative="1" as="geometry">
            <mxPoint x="1017.3201941747571" y="1013" as="sourcePoint" />
            <mxPoint x="999.9998058252428" y="1236" as="targetPoint" />
          </mxGeometry>
        </mxCell>
        <mxCell id="1c7a67bf8fd3230f-55" style="edgeStyle=none;html=1;labelBackgroundColor=none;startFill=0;endArrow=none;endFill=0;strokeWidth=2;fontFamily=Verdana;fontSize=12;entryX=0;entryY=0.25;entryDx=0;entryDy=0;entryPerimeter=0;" parent="1" source="AjF2ncFrVsrN5MG7hm1J-18" target="hdmpvEqsEqpy68kl_CeC-3" edge="1">
          <mxGeometry relative="1" as="geometry">
            <mxPoint x="903.317823359278" y="696.997803019256" as="targetPoint" />
          </mxGeometry>
        </mxCell>
        <mxCell id="1c7a67bf8fd3230f-46" value="" style="shape=mxgraph.cisco.routers.router;html=1;dashed=0;fillColor=#036897;strokeColor=#ffffff;strokeWidth=2;verticalLabelPosition=bottom;verticalAlign=top;rounded=0;shadow=0;comic=0;fontFamily=Verdana;fontSize=12;" parent="1" vertex="1">
          <mxGeometry x="900" y="630" width="58" height="29" as="geometry" />
        </mxCell>
        <mxCell id="1c7a67bf8fd3230f-54" style="edgeStyle=none;html=1;labelBackgroundColor=none;startFill=0;endArrow=none;endFill=0;strokeWidth=2;fontFamily=Verdana;fontSize=12;entryX=0.58;entryY=0.496;entryDx=0;entryDy=0;entryPerimeter=0;" parent="1" source="AjF2ncFrVsrN5MG7hm1J-20" target="hdmpvEqsEqpy68kl_CeC-3" edge="1">
          <mxGeometry relative="1" as="geometry">
            <mxPoint x="1171.3937665434214" y="696.0377536657979" as="targetPoint" />
          </mxGeometry>
        </mxCell>
        <mxCell id="1c7a67bf8fd3230f-47" value="" style="shape=mxgraph.cisco.routers.router;html=1;dashed=0;fillColor=#036897;strokeColor=#ffffff;strokeWidth=2;verticalLabelPosition=bottom;verticalAlign=top;rounded=0;shadow=0;comic=0;fontFamily=Verdana;fontSize=12;" parent="1" vertex="1">
          <mxGeometry x="1150" y="630" width="56" height="30" as="geometry" />
        </mxCell>
        <mxCell id="1c7a67bf8fd3230f-52" style="edgeStyle=none;html=1;labelBackgroundColor=none;startFill=0;endArrow=none;endFill=0;strokeWidth=2;fontFamily=Verdana;fontSize=12;exitX=1;exitY=0.75;exitDx=0;exitDy=0;exitPerimeter=0;strokeColor=light-dark(#000000,#80FF00);" parent="1" source="Fr8ylSRvn2xFsTFbEYaB-26" target="Fr8ylSRvn2xFsTFbEYaB-27" edge="1">
          <mxGeometry relative="1" as="geometry">
            <mxPoint x="1418.34" y="457.6107076107886" as="sourcePoint" />
            <mxPoint x="1496" y="760" as="targetPoint" />
          </mxGeometry>
        </mxCell>
        <mxCell id="hdmpvEqsEqpy68kl_CeC-1" value="" style="shape=mxgraph.cisco.routers.router;html=1;dashed=0;fillColor=#036897;strokeColor=#ffffff;strokeWidth=2;verticalLabelPosition=bottom;verticalAlign=top;rounded=0;shadow=0;comic=0;fontFamily=Verdana;fontSize=12;" parent="1" vertex="1">
          <mxGeometry x="890" y="760" width="68" height="30" as="geometry" />
        </mxCell>
        <mxCell id="hdmpvEqsEqpy68kl_CeC-3" value="" style="sketch=0;points=[[0.015,0.015,0],[0.985,0.015,0],[0.985,0.985,0],[0.015,0.985,0],[0.25,0,0],[0.5,0,0],[0.75,0,0],[1,0.25,0],[1,0.5,0],[1,0.75,0],[0.75,1,0],[0.5,1,0],[0.25,1,0],[0,0.75,0],[0,0.5,0],[0,0.25,0]];verticalLabelPosition=bottom;html=1;verticalAlign=top;aspect=fixed;align=center;pointerEvents=1;shape=mxgraph.cisco19.rect;prIcon=l2_switch;fillColor=#FAFAFA;strokeColor=#005073;" parent="1" vertex="1">
          <mxGeometry x="1031" y="696" width="50" height="50" as="geometry" />
        </mxCell>
        <mxCell id="hdmpvEqsEqpy68kl_CeC-2" value="" style="shape=mxgraph.cisco.routers.router;html=1;dashed=0;fillColor=#036897;strokeColor=#ffffff;strokeWidth=2;verticalLabelPosition=bottom;verticalAlign=top;rounded=0;shadow=0;comic=0;fontFamily=Verdana;fontSize=12;" parent="1" vertex="1">
          <mxGeometry x="1160" y="760" width="59" height="30" as="geometry" />
        </mxCell>
        <mxCell id="hdmpvEqsEqpy68kl_CeC-7" style="edgeStyle=none;html=1;labelBackgroundColor=none;startFill=0;endArrow=none;endFill=0;strokeWidth=2;fontFamily=Verdana;fontSize=12;exitX=0;exitY=0.5;exitDx=0;exitDy=0;exitPerimeter=0;entryX=0.985;entryY=0.985;entryDx=0;entryDy=0;entryPerimeter=0;" parent="1" source="AjF2ncFrVsrN5MG7hm1J-21" target="hdmpvEqsEqpy68kl_CeC-3" edge="1">
          <mxGeometry relative="1" as="geometry">
            <mxPoint x="1141" y="679" as="sourcePoint" />
            <mxPoint x="1030" y="830" as="targetPoint" />
          </mxGeometry>
        </mxCell>
        <mxCell id="hdmpvEqsEqpy68kl_CeC-8" style="edgeStyle=none;html=1;labelBackgroundColor=none;startFill=0;endArrow=none;endFill=0;strokeWidth=2;fontFamily=Verdana;fontSize=12;exitX=1;exitY=0.5;exitDx=0;exitDy=0;exitPerimeter=0;entryX=0.015;entryY=0.985;entryDx=0;entryDy=0;entryPerimeter=0;" parent="1" source="hdmpvEqsEqpy68kl_CeC-1" target="hdmpvEqsEqpy68kl_CeC-3" edge="1">
          <mxGeometry relative="1" as="geometry">
            <mxPoint x="1141" y="679" as="sourcePoint" />
            <mxPoint x="1060" y="790" as="targetPoint" />
          </mxGeometry>
        </mxCell>
        <mxCell id="Fr8ylSRvn2xFsTFbEYaB-2" value="" style="verticalLabelPosition=bottom;sketch=0;html=1;fillColor=#6ABD46;strokeColor=#ffffff;verticalAlign=top;align=center;points=[[0.085,0.085,0],[0.915,0.085,0],[0.915,0.915,0],[0.085,0.915,0],[0.25,0,0],[0.5,0,0],[0.75,0,0],[1,0.25,0],[1,0.5,0],[1,0.75,0],[0.75,1,0],[0.5,1,0],[0.25,1,0],[0,0.75,0],[0,0.5,0],[0,0.25,0]];pointerEvents=1;shape=mxgraph.cisco_safe.compositeIcon;bgIcon=mxgraph.cisco_safe.architecture.generic_appliance;resIcon=mxgraph.cisco_safe.architecture.firepower_appliance;" parent="1" vertex="1">
          <mxGeometry x="1150" y="501" width="56" height="49" as="geometry" />
        </mxCell>
        <mxCell id="Fr8ylSRvn2xFsTFbEYaB-4" value="" style="verticalLabelPosition=bottom;sketch=0;html=1;fillColor=#6ABD46;strokeColor=#ffffff;verticalAlign=top;align=center;points=[[0.085,0.085,0],[0.915,0.085,0],[0.915,0.915,0],[0.085,0.915,0],[0.25,0,0],[0.5,0,0],[0.75,0,0],[1,0.25,0],[1,0.5,0],[1,0.75,0],[0.75,1,0],[0.5,1,0],[0.25,1,0],[0,0.75,0],[0,0.5,0],[0,0.25,0]];pointerEvents=1;shape=mxgraph.cisco_safe.compositeIcon;bgIcon=mxgraph.cisco_safe.architecture.generic_appliance;resIcon=mxgraph.cisco_safe.architecture.firepower_management_center;" parent="1" vertex="1">
          <mxGeometry x="1270" y="310" width="56" height="51" as="geometry" />
        </mxCell>
        <mxCell id="Fr8ylSRvn2xFsTFbEYaB-5" value="" style="sketch=0;points=[[0.015,0.015,0],[0.985,0.015,0],[0.985,0.985,0],[0.015,0.985,0],[0.25,0,0],[0.5,0,0],[0.75,0,0],[1,0.25,0],[1,0.5,0],[1,0.75,0],[0.75,1,0],[0.5,1,0],[0.25,1,0],[0,0.75,0],[0,0.5,0],[0,0.25,0]];verticalLabelPosition=bottom;html=1;verticalAlign=top;aspect=fixed;align=center;pointerEvents=1;shape=mxgraph.cisco19.rect;prIcon=l2_switch;fillColor=#FAFAFA;strokeColor=#005073;" parent="1" vertex="1">
          <mxGeometry x="1212" y="430" width="38" height="38" as="geometry" />
        </mxCell>
        <mxCell id="Fr8ylSRvn2xFsTFbEYaB-6" value="&lt;font style=&quot;font-size: 8px;&quot;&gt;100.100.2.1&lt;/font&gt;" style="shape=mxgraph.cisco.computers_and_peripherals.pc;html=1;pointerEvents=1;dashed=0;fillColor=#036897;strokeColor=#ffffff;strokeWidth=2;verticalLabelPosition=bottom;verticalAlign=top;align=center;outlineConnect=0;" parent="1" vertex="1">
          <mxGeometry x="1210" y="320.5" width="42" height="30" as="geometry" />
        </mxCell>
        <mxCell id="Fr8ylSRvn2xFsTFbEYaB-8" value="" style="image;aspect=fixed;perimeter=ellipsePerimeter;html=1;align=center;shadow=0;dashed=0;fontColor=#4277BB;labelBackgroundColor=default;fontSize=12;spacingTop=3;image=img/lib/ibm/security/firewall.svg;" parent="1" vertex="1">
          <mxGeometry x="904" y="510" width="50" height="50" as="geometry" />
        </mxCell>
        <mxCell id="Fr8ylSRvn2xFsTFbEYaB-12" style="edgeStyle=none;html=1;labelBackgroundColor=none;startFill=0;endArrow=none;endFill=0;strokeWidth=2;fontFamily=Verdana;fontSize=12;exitX=0;exitY=0.5;exitDx=0;exitDy=0;exitPerimeter=0;entryX=0.915;entryY=0.085;entryDx=0;entryDy=0;entryPerimeter=0;strokeColor=light-dark(#000000,#0000FF);" parent="1" source="1c7a67bf8fd3230f-46" target="QZPthKrVkkydhestqFor-4" edge="1">
          <mxGeometry relative="1" as="geometry">
            <mxPoint x="730" y="639.9971065989848" as="sourcePoint" />
            <mxPoint x="778" y="696" as="targetPoint" />
          </mxGeometry>
        </mxCell>
        <mxCell id="Fr8ylSRvn2xFsTFbEYaB-13" style="edgeStyle=none;html=1;labelBackgroundColor=none;startFill=0;endArrow=none;endFill=0;strokeWidth=2;fontFamily=Verdana;fontSize=12;exitX=0;exitY=0.377;exitDx=0;exitDy=0;exitPerimeter=0;entryX=0.915;entryY=0.915;entryDx=0;entryDy=0;entryPerimeter=0;" parent="1" source="AjF2ncFrVsrN5MG7hm1J-28" target="QZPthKrVkkydhestqFor-4" edge="1">
          <mxGeometry relative="1" as="geometry">
            <mxPoint x="730" y="639.9971065989848" as="sourcePoint" />
            <mxPoint x="778" y="736" as="targetPoint" />
          </mxGeometry>
        </mxCell>
        <mxCell id="Fr8ylSRvn2xFsTFbEYaB-15" style="edgeStyle=none;html=1;labelBackgroundColor=none;startFill=0;endArrow=none;endFill=0;strokeWidth=2;fontFamily=Verdana;fontSize=12;exitX=0;exitY=0.25;exitDx=0;exitDy=0;entryX=1;entryY=0.5;entryDx=0;entryDy=0;entryPerimeter=0;exitPerimeter=0;" parent="1" source="QZPthKrVkkydhestqFor-5" target="1c7a67bf8fd3230f-47" edge="1">
          <mxGeometry relative="1" as="geometry">
            <mxPoint x="1291" y="690" as="sourcePoint" />
            <mxPoint x="1229" y="797" as="targetPoint" />
          </mxGeometry>
        </mxCell>
        <mxCell id="Fr8ylSRvn2xFsTFbEYaB-16" value="&lt;pre&gt;&lt;br&gt;&lt;/pre&gt;" style="shape=mxgraph.cisco.misc.asa_5500;html=1;pointerEvents=1;dashed=0;fillColor=#036897;strokeColor=#ffffff;strokeWidth=2;verticalLabelPosition=bottom;verticalAlign=top;align=center;outlineConnect=0;" parent="1" vertex="1">
          <mxGeometry x="1161.5" y="871.5" width="58.5" height="38.5" as="geometry" />
        </mxCell>
        <mxCell id="Fr8ylSRvn2xFsTFbEYaB-26" value="" style="sketch=0;points=[[0.015,0.015,0],[0.985,0.015,0],[0.985,0.985,0],[0.015,0.985,0],[0.25,0,0],[0.5,0,0],[0.75,0,0],[1,0.25,0],[1,0.5,0],[1,0.75,0],[0.75,1,0],[0.5,1,0],[0.25,1,0],[0,0.75,0],[0,0.5,0],[0,0.25,0]];verticalLabelPosition=bottom;html=1;verticalAlign=top;aspect=fixed;align=center;pointerEvents=1;shape=mxgraph.cisco19.rect;prIcon=l2_switch;fillColor=#FAFAFA;strokeColor=#005073;" parent="1" vertex="1">
          <mxGeometry x="1344" y="775" width="38" height="38" as="geometry" />
        </mxCell>
        <mxCell id="Fr8ylSRvn2xFsTFbEYaB-27" value="&lt;font style=&quot;font-size: 8px;&quot;&gt;50.50.2.1&lt;/font&gt;" style="shape=mxgraph.cisco.computers_and_peripherals.pc;html=1;pointerEvents=1;dashed=0;fillColor=light-dark(#036897,#99FF33);strokeColor=#ffffff;strokeWidth=2;verticalLabelPosition=bottom;verticalAlign=top;align=center;outlineConnect=0;fontFamily=Helvetica;fontSize=12;fontColor=default;" parent="1" vertex="1">
          <mxGeometry x="1420" y="879.25" width="42" height="30" as="geometry" />
        </mxCell>
        <mxCell id="Fr8ylSRvn2xFsTFbEYaB-28" value="&lt;font style=&quot;font-size: 8px;&quot;&gt;50.50.3.1&lt;/font&gt;" style="shape=mxgraph.cisco.computers_and_peripherals.pc;html=1;pointerEvents=1;dashed=0;fillColor=light-dark(#036897,#FF0080);strokeColor=#ffffff;strokeWidth=2;verticalLabelPosition=bottom;verticalAlign=top;align=center;outlineConnect=0;" parent="1" vertex="1">
          <mxGeometry x="1480" y="879.25" width="42" height="30" as="geometry" />
        </mxCell>
        <mxCell id="Fr8ylSRvn2xFsTFbEYaB-29" value="&lt;font style=&quot;font-size: 8px;&quot;&gt;50.50.1.1&lt;/font&gt;" style="shape=mxgraph.cisco.computers_and_peripherals.pc;html=1;pointerEvents=1;dashed=0;fillColor=#036897;strokeColor=#ffffff;strokeWidth=2;verticalLabelPosition=bottom;verticalAlign=top;align=center;outlineConnect=0;fontFamily=Helvetica;fontSize=12;fontColor=default;" parent="1" vertex="1">
          <mxGeometry x="1360" y="879.25" width="42" height="30" as="geometry" />
        </mxCell>
        <mxCell id="Fr8ylSRvn2xFsTFbEYaB-30" style="edgeStyle=none;html=1;labelBackgroundColor=none;startFill=0;endArrow=none;endFill=0;strokeWidth=2;fontFamily=Verdana;fontSize=12;exitX=0.5;exitY=1;exitDx=0;exitDy=0;exitPerimeter=0;entryX=0.5;entryY=0;entryDx=0;entryDy=0;entryPerimeter=0;strokeColor=light-dark(#000000,#FF3399);" parent="1" source="Fr8ylSRvn2xFsTFbEYaB-33" target="Fr8ylSRvn2xFsTFbEYaB-36" edge="1">
          <mxGeometry relative="1" as="geometry">
            <mxPoint x="647" y="433.42" as="sourcePoint" />
            <mxPoint x="715" y="433.42" as="targetPoint" />
          </mxGeometry>
        </mxCell>
        <mxCell id="Fr8ylSRvn2xFsTFbEYaB-31" style="edgeStyle=none;html=1;labelBackgroundColor=none;startFill=0;endArrow=none;endFill=0;strokeWidth=2;fontFamily=Verdana;fontSize=12;exitX=0.985;exitY=0.985;exitDx=0;exitDy=0;exitPerimeter=0;entryX=0.16;entryY=0.5;entryDx=0;entryDy=0;entryPerimeter=0;strokeColor=light-dark(#000000,#FFFFFF);" parent="1" source="Fr8ylSRvn2xFsTFbEYaB-33" target="Fr8ylSRvn2xFsTFbEYaB-35" edge="1">
          <mxGeometry relative="1" as="geometry">
            <mxPoint x="755" y="439.651884057971" as="sourcePoint" />
            <mxPoint x="854" y="470.4997101449275" as="targetPoint" />
          </mxGeometry>
        </mxCell>
        <mxCell id="Fr8ylSRvn2xFsTFbEYaB-32" style="edgeStyle=none;html=1;labelBackgroundColor=none;startFill=0;endArrow=none;endFill=0;strokeWidth=2;fontFamily=Verdana;fontSize=12;exitX=0.75;exitY=1;exitDx=0;exitDy=0;exitPerimeter=0;strokeColor=light-dark(#000000,#80FF00);" parent="1" source="Fr8ylSRvn2xFsTFbEYaB-33" target="Fr8ylSRvn2xFsTFbEYaB-34" edge="1">
          <mxGeometry relative="1" as="geometry">
            <mxPoint x="738.3399999999999" y="460.1107076107886" as="sourcePoint" />
            <mxPoint x="816" y="762.5" as="targetPoint" />
          </mxGeometry>
        </mxCell>
        <mxCell id="Fr8ylSRvn2xFsTFbEYaB-33" value="" style="sketch=0;points=[[0.015,0.015,0],[0.985,0.015,0],[0.985,0.985,0],[0.015,0.985,0],[0.25,0,0],[0.5,0,0],[0.75,0,0],[1,0.25,0],[1,0.5,0],[1,0.75,0],[0.75,1,0],[0.5,1,0],[0.25,1,0],[0,0.75,0],[0,0.5,0],[0,0.25,0]];verticalLabelPosition=bottom;html=1;verticalAlign=top;aspect=fixed;align=center;pointerEvents=1;shape=mxgraph.cisco19.rect;prIcon=l2_switch;fillColor=#FAFAFA;strokeColor=#005073;" parent="1" vertex="1">
          <mxGeometry x="664" y="777.5" width="38" height="38" as="geometry" />
        </mxCell>
        <mxCell id="Fr8ylSRvn2xFsTFbEYaB-34" value="&lt;font style=&quot;font-size: 8px;&quot;&gt;40.40.2.1&lt;/font&gt;" style="shape=mxgraph.cisco.computers_and_peripherals.pc;html=1;pointerEvents=1;dashed=0;fillColor=light-dark(#036897,#99FF33);strokeColor=#ffffff;strokeWidth=2;verticalLabelPosition=bottom;verticalAlign=top;align=center;outlineConnect=0;" parent="1" vertex="1">
          <mxGeometry x="670" y="879.25" width="42" height="30" as="geometry" />
        </mxCell>
        <mxCell id="Fr8ylSRvn2xFsTFbEYaB-35" value="&lt;font style=&quot;font-size: 8px;&quot;&gt;40.40.1.1&lt;/font&gt;" style="shape=mxgraph.cisco.computers_and_peripherals.pc;html=1;pointerEvents=1;dashed=0;fillColor=#036897;strokeColor=#ffffff;strokeWidth=2;verticalLabelPosition=bottom;verticalAlign=top;align=center;outlineConnect=0;fontFamily=Helvetica;fontSize=12;fontColor=default;" parent="1" vertex="1">
          <mxGeometry x="730" y="879.25" width="42" height="30" as="geometry" />
        </mxCell>
        <mxCell id="Fr8ylSRvn2xFsTFbEYaB-36" value="&lt;font style=&quot;font-size: 8px;&quot;&gt;40.40.3.1&lt;/font&gt;" style="shape=mxgraph.cisco.computers_and_peripherals.pc;html=1;pointerEvents=1;dashed=0;fillColor=light-dark(#036897,#FF0080);strokeColor=#ffffff;strokeWidth=2;verticalLabelPosition=bottom;verticalAlign=top;align=center;outlineConnect=0;fontFamily=Helvetica;fontSize=12;fontColor=default;" parent="1" vertex="1">
          <mxGeometry x="610" y="879.25" width="42" height="30" as="geometry" />
        </mxCell>
        <mxCell id="Fr8ylSRvn2xFsTFbEYaB-37" value="&lt;font style=&quot;font-size: 8px;&quot;&gt;70.70.1.1&lt;/font&gt;" style="shape=mxgraph.cisco.computers_and_peripherals.pc;html=1;pointerEvents=1;dashed=0;fillColor=#036897;strokeColor=#ffffff;strokeWidth=2;verticalLabelPosition=bottom;verticalAlign=top;align=center;outlineConnect=0;" parent="1" vertex="1">
          <mxGeometry x="730" y="520" width="42" height="30" as="geometry" />
        </mxCell>
        <mxCell id="Fr8ylSRvn2xFsTFbEYaB-38" style="edgeStyle=none;html=1;labelBackgroundColor=none;startFill=0;endArrow=none;endFill=0;strokeWidth=2;fontFamily=Verdana;fontSize=12;exitX=0;exitY=0.5;exitDx=0;exitDy=0;entryX=0.83;entryY=0.5;entryDx=0;entryDy=0;entryPerimeter=0;" parent="1" source="Fr8ylSRvn2xFsTFbEYaB-8" target="Fr8ylSRvn2xFsTFbEYaB-37" edge="1">
          <mxGeometry relative="1" as="geometry">
            <mxPoint x="710" y="410" as="sourcePoint" />
            <mxPoint x="720.2257053291537" y="643" as="targetPoint" />
          </mxGeometry>
        </mxCell>
        <mxCell id="Fr8ylSRvn2xFsTFbEYaB-39" value="&lt;font style=&quot;font-size: 8px;&quot;&gt;100.100.1.1&lt;/font&gt;" style="shape=mxgraph.cisco.computers_and_peripherals.pc;html=1;pointerEvents=1;dashed=0;fillColor=#036897;strokeColor=#ffffff;strokeWidth=2;verticalLabelPosition=bottom;verticalAlign=top;align=center;outlineConnect=0;" parent="1" vertex="1">
          <mxGeometry x="1157" y="320.5" width="42" height="30" as="geometry" />
        </mxCell>
        <mxCell id="Fr8ylSRvn2xFsTFbEYaB-40" style="edgeStyle=none;html=1;labelBackgroundColor=none;startFill=0;endArrow=none;endFill=0;strokeWidth=2;fontFamily=Verdana;fontSize=12;entryX=0.5;entryY=0;entryDx=0;entryDy=0;entryPerimeter=0;" parent="1" source="Fr8ylSRvn2xFsTFbEYaB-39" target="Fr8ylSRvn2xFsTFbEYaB-2" edge="1">
          <mxGeometry relative="1" as="geometry">
            <mxPoint x="1010" y="360" as="sourcePoint" />
            <mxPoint x="1010" y="171.84347826086946" as="targetPoint" />
          </mxGeometry>
        </mxCell>
        <mxCell id="Fr8ylSRvn2xFsTFbEYaB-42" value="" style="sketch=0;points=[[0.015,0.015,0],[0.985,0.015,0],[0.985,0.985,0],[0.015,0.985,0],[0.25,0,0],[0.5,0,0],[0.75,0,0],[1,0.25,0],[1,0.5,0],[1,0.75,0],[0.75,1,0],[0.5,1,0],[0.25,1,0],[0,0.75,0],[0,0.5,0],[0,0.25,0]];verticalLabelPosition=bottom;html=1;verticalAlign=top;aspect=fixed;align=center;pointerEvents=1;shape=mxgraph.cisco19.rect;prIcon=l2_switch;fillColor=#FAFAFA;strokeColor=#005073;" parent="1" vertex="1">
          <mxGeometry x="1260" y="875.25" width="38" height="38" as="geometry" />
        </mxCell>
        <mxCell id="Fr8ylSRvn2xFsTFbEYaB-43" style="edgeStyle=none;html=1;labelBackgroundColor=none;startFill=0;endArrow=none;endFill=0;strokeWidth=2;fontFamily=Verdana;fontSize=12;entryX=0.5;entryY=0;entryDx=0;entryDy=0;exitX=0.5;exitY=1;exitDx=0;exitDy=0;exitPerimeter=0;" parent="1" source="Fr8ylSRvn2xFsTFbEYaB-42" target="QZPthKrVkkydhestqFor-21" edge="1">
          <mxGeometry relative="1" as="geometry">
            <mxPoint x="1196" y="919.9965573770494" as="sourcePoint" />
            <mxPoint x="1254" y="991.69" as="targetPoint" />
          </mxGeometry>
        </mxCell>
        <mxCell id="Fr8ylSRvn2xFsTFbEYaB-44" value="&lt;font style=&quot;font-size: 8px;&quot;&gt;90.90.2.1&lt;/font&gt;" style="shape=mxgraph.cisco.computers_and_peripherals.pc;html=1;pointerEvents=1;dashed=0;fillColor=#036897;strokeColor=#ffffff;strokeWidth=2;verticalLabelPosition=bottom;verticalAlign=top;align=center;outlineConnect=0;" parent="1" vertex="1">
          <mxGeometry x="870" y="1000" width="42" height="30" as="geometry" />
        </mxCell>
        <mxCell id="Fr8ylSRvn2xFsTFbEYaB-45" value="&lt;font style=&quot;font-size: 8px;&quot;&gt;90.90.1.1&lt;/font&gt;" style="shape=mxgraph.cisco.computers_and_peripherals.pc;html=1;pointerEvents=1;dashed=0;fillColor=#036897;strokeColor=#ffffff;strokeWidth=2;verticalLabelPosition=bottom;verticalAlign=top;align=center;outlineConnect=0;" parent="1" vertex="1">
          <mxGeometry x="951" y="1000" width="42" height="30" as="geometry" />
        </mxCell>
        <mxCell id="QZPthKrVkkydhestqFor-1" value="" style="verticalLabelPosition=bottom;sketch=0;html=1;fillColor=#FF6B35;strokeColor=#ffffff;verticalAlign=top;align=center;points=[[0.085,0.085,0],[0.915,0.085,0],[0.915,0.915,0],[0.085,0.915,0],[0.25,0,0],[0.5,0,0],[0.75,0,0],[1,0.25,0],[1,0.5,0],[1,0.75,0],[0.75,1,0],[0.5,1,0],[0.25,1,0],[0,0.75,0],[0,0.5,0],[0,0.25,0]];pointerEvents=1;shape=mxgraph.cisco_safe.compositeIcon;bgIcon=mxgraph.cisco_safe.architecture.generic_appliance;resIcon=mxgraph.cisco_safe.architecture.firepower_appliance;strokeWidth=2;" parent="1" vertex="1">
          <mxGeometry x="894" y="863.75" width="60" height="54" as="geometry" />
        </mxCell>
        <mxCell id="QZPthKrVkkydhestqFor-4" value="" style="verticalLabelPosition=bottom;sketch=0;html=1;fillColor=#0066CC;strokeColor=#ffffff;verticalAlign=top;align=center;points=[[0.085,0.085,0],[0.915,0.085,0],[0.915,0.915,0],[0.085,0.915,0],[0.25,0,0],[0.5,0,0],[0.75,0,0],[1,0.25,0],[1,0.5,0],[1,0.75,0],[0.75,1,0],[0.5,1,0],[0.25,1,0],[0,0.75,0],[0,0.5,0],[0,0.25,0]];pointerEvents=1;shape=mxgraph.cisco_safe.compositeIcon;bgIcon=mxgraph.cisco_safe.architecture.generic_appliance;resIcon=mxgraph.cisco_safe.architecture.firepower_appliance;strokeWidth=2;" parent="1" vertex="1">
          <mxGeometry x="772" y="678" width="60" height="54" as="geometry" />
        </mxCell>
        <mxCell id="QZPthKrVkkydhestqFor-5" value="" style="verticalLabelPosition=bottom;sketch=0;html=1;fillColor=#0066CC;strokeColor=#ffffff;verticalAlign=top;align=center;points=[[0.085,0.085,0],[0.915,0.085,0],[0.915,0.915,0],[0.085,0.915,0],[0.25,0,0],[0.5,0,0],[0.75,0,0],[1,0.25,0],[1,0.5,0],[1,0.75,0],[0.75,1,0],[0.5,1,0],[0.25,1,0],[0,0.75,0],[0,0.5,0],[0,0.25,0]];pointerEvents=1;shape=mxgraph.cisco_safe.compositeIcon;bgIcon=mxgraph.cisco_safe.architecture.generic_appliance;resIcon=mxgraph.cisco_safe.architecture.firepower_appliance;strokeWidth=2;" parent="1" vertex="1">
          <mxGeometry x="1300" y="678" width="60" height="54" as="geometry" />
        </mxCell>
        <mxCell id="QZPthKrVkkydhestqFor-7" value="192.168.2.222" style="ellipse;shape=cloud;whiteSpace=wrap;html=1;fillColor=#ECEFF1;strokeColor=#455A64;strokeWidth=2;" parent="1" vertex="1">
          <mxGeometry x="581" y="500" width="100" height="60" as="geometry" />
        </mxCell>
        <mxCell id="QZPthKrVkkydhestqFor-8" value="&lt;font style=&quot;font-size: 10px;&quot;&gt;192.168.2.101&lt;/font&gt;" style="ellipse;shape=cloud;whiteSpace=wrap;html=1;fillColor=#ECEFF1;strokeColor=#455A64;strokeWidth=2;" parent="1" vertex="1">
          <mxGeometry x="570" y="650" width="100" height="60" as="geometry" />
        </mxCell>
        <mxCell id="QZPthKrVkkydhestqFor-9" style="edgeStyle=none;html=1;labelBackgroundColor=none;startFill=0;endArrow=none;endFill=0;strokeWidth=2;fontFamily=Verdana;fontSize=12;exitX=0.085;exitY=0.085;exitDx=0;exitDy=0;exitPerimeter=0;entryX=0.875;entryY=0.5;entryDx=0;entryDy=0;entryPerimeter=0;" parent="1" source="QZPthKrVkkydhestqFor-4" target="QZPthKrVkkydhestqFor-8" edge="1">
          <mxGeometry relative="1" as="geometry">
            <mxPoint x="771" y="640" as="sourcePoint" />
            <mxPoint x="700" y="713" as="targetPoint" />
          </mxGeometry>
        </mxCell>
        <mxCell id="QZPthKrVkkydhestqFor-10" style="edgeStyle=none;html=1;labelBackgroundColor=none;startFill=0;endArrow=none;endFill=0;strokeWidth=2;fontFamily=Verdana;fontSize=12;exitX=0.25;exitY=0;exitDx=0;exitDy=0;entryX=0.88;entryY=0.25;entryDx=0;entryDy=0;entryPerimeter=0;" parent="1" source="Fr8ylSRvn2xFsTFbEYaB-8" target="QZPthKrVkkydhestqFor-7" edge="1">
          <mxGeometry relative="1" as="geometry">
            <mxPoint x="839" y="623" as="sourcePoint" />
            <mxPoint x="720" y="620" as="targetPoint" />
          </mxGeometry>
        </mxCell>
        <mxCell id="QZPthKrVkkydhestqFor-11" value="&lt;font style=&quot;font-size: 10px;&quot;&gt;192.168.2.100&lt;/font&gt;" style="ellipse;shape=cloud;whiteSpace=wrap;html=1;fillColor=#ECEFF1;strokeColor=#455A64;strokeWidth=2;" parent="1" vertex="1">
          <mxGeometry x="1470" y="650" width="100" height="60" as="geometry" />
        </mxCell>
        <mxCell id="QZPthKrVkkydhestqFor-14" value="&lt;font style=&quot;font-size: 10px;&quot;&gt;192.168.2.227&lt;/font&gt;" style="ellipse;shape=cloud;whiteSpace=wrap;html=1;fillColor=#ECEFF1;strokeColor=#455A64;strokeWidth=2;" parent="1" vertex="1">
          <mxGeometry x="1475" y="301" width="100" height="60" as="geometry" />
        </mxCell>
        <mxCell id="QZPthKrVkkydhestqFor-17" value="&lt;font style=&quot;font-size: 10px;&quot;&gt;192.168.2.229&lt;/font&gt;" style="ellipse;shape=cloud;whiteSpace=wrap;html=1;fillColor=#ECEFF1;strokeColor=#455A64;strokeWidth=2;" parent="1" vertex="1">
          <mxGeometry x="732" y="1040" width="100" height="60" as="geometry" />
        </mxCell>
        <mxCell id="QZPthKrVkkydhestqFor-18" value="&lt;font style=&quot;font-size: 10px;&quot;&gt;192.168.2.132&lt;/font&gt;" style="ellipse;shape=cloud;whiteSpace=wrap;html=1;fillColor=#ECEFF1;strokeColor=#455A64;strokeWidth=2;" parent="1" vertex="1">
          <mxGeometry x="1031" y="1040" width="100" height="60" as="geometry" />
        </mxCell>
        <mxCell id="QZPthKrVkkydhestqFor-19" style="edgeStyle=none;html=1;labelBackgroundColor=none;startFill=0;endArrow=none;endFill=0;strokeWidth=2;fontFamily=Verdana;fontSize=12;entryX=0.625;entryY=0.2;entryDx=0;entryDy=0;entryPerimeter=0;" parent="1" source="Fr8ylSRvn2xFsTFbEYaB-16" target="QZPthKrVkkydhestqFor-18" edge="1">
          <mxGeometry relative="1" as="geometry">
            <mxPoint x="1150" y="970" as="sourcePoint" />
            <mxPoint x="1151" y="1021" as="targetPoint" />
          </mxGeometry>
        </mxCell>
        <mxCell id="QZPthKrVkkydhestqFor-20" style="edgeStyle=none;html=1;labelBackgroundColor=none;startFill=0;endArrow=none;endFill=0;strokeWidth=2;fontFamily=Verdana;fontSize=12;entryX=0.4;entryY=0.1;entryDx=0;entryDy=0;entryPerimeter=0;exitX=0;exitY=0.75;exitDx=0;exitDy=0;exitPerimeter=0;" parent="1" source="QZPthKrVkkydhestqFor-1" target="QZPthKrVkkydhestqFor-17" edge="1">
          <mxGeometry relative="1" as="geometry">
            <mxPoint x="1155" y="950" as="sourcePoint" />
            <mxPoint x="1070" y="1092" as="targetPoint" />
          </mxGeometry>
        </mxCell>
        <mxCell id="QZPthKrVkkydhestqFor-21" value="KALI" style="rounded=1;whiteSpace=wrap;html=1;fillColor=none;strokeWidth=3;fontStyle=1;fontSize=12;" parent="1" vertex="1">
          <mxGeometry x="1250" y="1020" width="58" height="30" as="geometry" />
        </mxCell>
        <mxCell id="QZPthKrVkkydhestqFor-22" value="&lt;font style=&quot;font-size: 10px;&quot;&gt;192.168.2.226&lt;/font&gt;" style="ellipse;shape=cloud;whiteSpace=wrap;html=1;fillColor=#ECEFF1;strokeColor=#455A64;strokeWidth=2;" parent="1" vertex="1">
          <mxGeometry x="1410" y="1040" width="100" height="60" as="geometry" />
        </mxCell>
        <mxCell id="QZPthKrVkkydhestqFor-23" style="edgeStyle=none;html=1;labelBackgroundColor=none;startFill=0;endArrow=none;endFill=0;strokeWidth=2;fontFamily=Verdana;fontSize=12;entryX=0.07;entryY=0.4;entryDx=0;entryDy=0;entryPerimeter=0;" parent="1" source="QZPthKrVkkydhestqFor-21" target="QZPthKrVkkydhestqFor-22" edge="1">
          <mxGeometry relative="1" as="geometry">
            <mxPoint x="1400" y="970" as="sourcePoint" />
            <mxPoint x="1449" y="1059" as="targetPoint" />
          </mxGeometry>
        </mxCell>
        <mxCell id="QZPthKrVkkydhestqFor-25" value="&lt;font style=&quot;font-size: 8px;&quot;&gt;114.114.1.1&lt;/font&gt;" style="shape=mxgraph.cisco.computers_and_peripherals.pc;html=1;pointerEvents=1;dashed=0;fillColor=#036897;strokeColor=#ffffff;strokeWidth=2;verticalLabelPosition=bottom;verticalAlign=top;align=center;outlineConnect=0;" parent="1" vertex="1">
          <mxGeometry x="1168.5" y="1000" width="42" height="30" as="geometry" />
        </mxCell>
        <mxCell id="QZPthKrVkkydhestqFor-26" value="&lt;pre&gt;&lt;font style=&quot;color: light-dark(rgb(0, 0, 0), rgb(255, 153, 51));&quot;&gt;&lt;b&gt;Splunk&lt;/b&gt;&lt;/font&gt;&lt;/pre&gt;" style="verticalLabelPosition=bottom;sketch=0;html=1;fillColor=#282828;strokeColor=none;verticalAlign=top;pointerEvents=1;align=center;shape=mxgraph.cisco_safe.security_icons.siem;" parent="1" vertex="1">
          <mxGeometry x="899" y="325.5" width="59" height="50" as="geometry" />
        </mxCell>
        <mxCell id="QZPthKrVkkydhestqFor-27" value="&lt;font style=&quot;font-size: 10px;&quot;&gt;192.168.2.130&lt;/font&gt;" style="ellipse;shape=cloud;whiteSpace=wrap;html=1;fillColor=#ECEFF1;strokeColor=#455A64;strokeWidth=2;" parent="1" vertex="1">
          <mxGeometry x="701" y="320.5" width="100" height="60" as="geometry" />
        </mxCell>
        <mxCell id="QZPthKrVkkydhestqFor-28" style="edgeStyle=none;html=1;labelBackgroundColor=none;startFill=0;endArrow=none;endFill=0;strokeWidth=2;fontFamily=Verdana;fontSize=12;exitX=0.875;exitY=0.5;exitDx=0;exitDy=0;exitPerimeter=0;" parent="1" source="QZPthKrVkkydhestqFor-27" target="QZPthKrVkkydhestqFor-26" edge="1">
          <mxGeometry relative="1" as="geometry">
            <mxPoint x="800" y="353" as="sourcePoint" />
            <mxPoint x="980" y="351" as="targetPoint" />
          </mxGeometry>
        </mxCell>
        <mxCell id="AjF2ncFrVsrN5MG7hm1J-3" value="" style="edgeStyle=none;html=1;labelBackgroundColor=none;startFill=0;endArrow=none;endFill=0;strokeWidth=2;fontFamily=Verdana;fontSize=12;entryX=0.5;entryY=0;entryDx=0;entryDy=0;entryPerimeter=0;" edge="1" parent="1" source="Fr8ylSRvn2xFsTFbEYaB-16" target="QZPthKrVkkydhestqFor-25">
          <mxGeometry relative="1" as="geometry">
            <mxPoint x="1191" y="910" as="sourcePoint" />
            <mxPoint x="1191.5" y="950" as="targetPoint" />
          </mxGeometry>
        </mxCell>
        <mxCell id="AjF2ncFrVsrN5MG7hm1J-5" value="&lt;pre&gt;&lt;b&gt;Cisco FTD&lt;/b&gt;&lt;/pre&gt;" style="text;html=1;whiteSpace=wrap;strokeColor=none;fillColor=none;align=center;verticalAlign=middle;rounded=0;fontFamily=Helvetica;fontSize=12;fontColor=light-dark(#000000,#00FFFF);" vertex="1" parent="1">
          <mxGeometry x="1148" y="540" width="60" height="30" as="geometry" />
        </mxCell>
        <mxCell id="AjF2ncFrVsrN5MG7hm1J-6" value="&lt;pre&gt;&lt;b&gt;Cisco FMC&lt;/b&gt;&lt;/pre&gt;" style="text;html=1;whiteSpace=wrap;strokeColor=none;fillColor=none;align=center;verticalAlign=middle;rounded=0;fontFamily=Helvetica;fontSize=12;fontColor=light-dark(#000000,#00FFFF);" vertex="1" parent="1">
          <mxGeometry x="1260" y="350.5" width="80" height="30" as="geometry" />
        </mxCell>
        <mxCell id="AjF2ncFrVsrN5MG7hm1J-7" value="&lt;pre&gt;&lt;b&gt;Fortigate&lt;/b&gt;&lt;/pre&gt;" style="text;html=1;whiteSpace=wrap;strokeColor=none;fillColor=none;align=center;verticalAlign=middle;rounded=0;fontFamily=Helvetica;fontSize=12;fontColor=light-dark(#000000,#FF0000);" vertex="1" parent="1">
          <mxGeometry x="900" y="550" width="60" height="30" as="geometry" />
        </mxCell>
        <mxCell id="AjF2ncFrVsrN5MG7hm1J-8" value="&lt;pre&gt;&lt;b&gt;PaloAlto&lt;/b&gt;&lt;/pre&gt;" style="text;html=1;whiteSpace=wrap;strokeColor=none;fillColor=none;align=center;verticalAlign=middle;rounded=0;fontColor=light-dark(#000000,#FF8000);" vertex="1" parent="1">
          <mxGeometry x="898.5" y="841.5" width="60" height="30" as="geometry" />
        </mxCell>
        <mxCell id="AjF2ncFrVsrN5MG7hm1J-9" value="&lt;pre&gt;&lt;b&gt;Stormshield&lt;/b&gt;&lt;/pre&gt;" style="text;html=1;whiteSpace=wrap;strokeColor=none;fillColor=none;align=center;verticalAlign=middle;rounded=0;rotation=0;fontFamily=Helvetica;fontSize=12;fontColor=light-dark(#000000,#0000FF);" vertex="1" parent="1">
          <mxGeometry x="772" y="650" width="60" height="30" as="geometry" />
        </mxCell>
        <mxCell id="AjF2ncFrVsrN5MG7hm1J-17" value="&lt;pre&gt;&lt;b&gt;Cisco ASA&lt;/b&gt;&lt;/pre&gt;" style="text;html=1;whiteSpace=wrap;strokeColor=none;fillColor=none;align=center;verticalAlign=middle;rounded=0;fontFamily=Helvetica;fontSize=12;fontColor=light-dark(#000000,#00FFFF);" vertex="1" parent="1">
          <mxGeometry x="1161.5" y="849.25" width="60" height="30" as="geometry" />
        </mxCell>
        <mxCell id="AjF2ncFrVsrN5MG7hm1J-19" value="30.30.1.2" style="text;html=1;whiteSpace=wrap;strokeColor=none;fillColor=none;align=center;verticalAlign=middle;rounded=0;fontSize=8;" vertex="1" parent="1">
          <mxGeometry x="956.5" y="775" width="49" height="10" as="geometry" />
        </mxCell>
        <mxCell id="AjF2ncFrVsrN5MG7hm1J-23" value="" style="edgeStyle=none;html=1;labelBackgroundColor=none;startFill=0;endArrow=none;endFill=0;strokeWidth=2;fontFamily=Verdana;fontSize=12;entryX=0;entryY=0.25;entryDx=0;entryDy=0;entryPerimeter=0;" edge="1" parent="1" source="1c7a67bf8fd3230f-46" target="AjF2ncFrVsrN5MG7hm1J-18">
          <mxGeometry relative="1" as="geometry">
            <mxPoint x="1031" y="709" as="targetPoint" />
            <mxPoint x="952" y="659" as="sourcePoint" />
          </mxGeometry>
        </mxCell>
        <mxCell id="AjF2ncFrVsrN5MG7hm1J-18" value="30.30.1.1" style="text;html=1;whiteSpace=wrap;strokeColor=none;fillColor=none;align=center;verticalAlign=middle;rounded=0;fontSize=8;" vertex="1" parent="1">
          <mxGeometry x="933" y="648" width="60" height="30" as="geometry" />
        </mxCell>
        <mxCell id="AjF2ncFrVsrN5MG7hm1J-25" value="" style="edgeStyle=none;html=1;labelBackgroundColor=none;startFill=0;endArrow=none;endFill=0;strokeWidth=2;fontFamily=Verdana;fontSize=12;entryX=0.58;entryY=0.496;entryDx=0;entryDy=0;entryPerimeter=0;" edge="1" parent="1" source="1c7a67bf8fd3230f-47" target="AjF2ncFrVsrN5MG7hm1J-20">
          <mxGeometry relative="1" as="geometry">
            <mxPoint x="1060" y="721" as="targetPoint" />
            <mxPoint x="1155" y="660" as="sourcePoint" />
          </mxGeometry>
        </mxCell>
        <mxCell id="AjF2ncFrVsrN5MG7hm1J-20" value="30.30.1.3" style="text;html=1;whiteSpace=wrap;strokeColor=none;fillColor=none;align=center;verticalAlign=middle;rounded=0;fontSize=8;" vertex="1" parent="1">
          <mxGeometry x="1120" y="650" width="60" height="30" as="geometry" />
        </mxCell>
        <mxCell id="AjF2ncFrVsrN5MG7hm1J-26" value="" style="edgeStyle=none;html=1;labelBackgroundColor=none;startFill=0;endArrow=none;endFill=0;strokeWidth=2;fontFamily=Verdana;fontSize=12;exitX=0;exitY=0.5;exitDx=0;exitDy=0;exitPerimeter=0;entryX=0.985;entryY=0.985;entryDx=0;entryDy=0;entryPerimeter=0;" edge="1" parent="1" source="hdmpvEqsEqpy68kl_CeC-2" target="AjF2ncFrVsrN5MG7hm1J-21">
          <mxGeometry relative="1" as="geometry">
            <mxPoint x="1160" y="775" as="sourcePoint" />
            <mxPoint x="1080" y="745" as="targetPoint" />
          </mxGeometry>
        </mxCell>
        <mxCell id="AjF2ncFrVsrN5MG7hm1J-21" value="30.30.1.4" style="text;html=1;whiteSpace=wrap;strokeColor=none;fillColor=none;align=center;verticalAlign=middle;rounded=0;fontSize=8;" vertex="1" parent="1">
          <mxGeometry x="1111.5" y="760" width="38.5" height="10" as="geometry" />
        </mxCell>
        <mxCell id="AjF2ncFrVsrN5MG7hm1J-27" value="10.10.1.1" style="text;html=1;whiteSpace=wrap;strokeColor=none;fillColor=none;align=center;verticalAlign=middle;rounded=0;fontSize=8;" vertex="1" parent="1">
          <mxGeometry x="805" y="680" width="60" height="16" as="geometry" />
        </mxCell>
        <mxCell id="AjF2ncFrVsrN5MG7hm1J-29" value="" style="edgeStyle=none;html=1;labelBackgroundColor=none;startFill=0;endArrow=none;endFill=0;strokeWidth=2;fontFamily=Verdana;fontSize=12;exitX=0;exitY=0.377;exitDx=0;exitDy=0;exitPerimeter=0;entryX=0.915;entryY=0.915;entryDx=0;entryDy=0;entryPerimeter=0;fontColor=light-dark(#000000,#0000FF);strokeColor=light-dark(#000000,#0000FF);" edge="1" parent="1" source="hdmpvEqsEqpy68kl_CeC-1" target="AjF2ncFrVsrN5MG7hm1J-28">
          <mxGeometry relative="1" as="geometry">
            <mxPoint x="890" y="771" as="sourcePoint" />
            <mxPoint x="827" y="727" as="targetPoint" />
          </mxGeometry>
        </mxCell>
        <mxCell id="AjF2ncFrVsrN5MG7hm1J-28" value="10.10.2.1" style="text;html=1;whiteSpace=wrap;strokeColor=none;fillColor=none;align=center;verticalAlign=middle;rounded=0;fontSize=8;" vertex="1" parent="1">
          <mxGeometry x="801" y="720" width="60" height="20" as="geometry" />
        </mxCell>
        <mxCell id="AjF2ncFrVsrN5MG7hm1J-30" value="10.10.1.254" style="text;html=1;whiteSpace=wrap;strokeColor=none;fillColor=none;align=center;verticalAlign=middle;rounded=0;fontSize=8;" vertex="1" parent="1">
          <mxGeometry x="849" y="629" width="60" height="11" as="geometry" />
        </mxCell>
        <mxCell id="AjF2ncFrVsrN5MG7hm1J-31" value="10.10.2.254" style="text;html=1;whiteSpace=wrap;strokeColor=none;fillColor=none;align=center;verticalAlign=middle;rounded=0;fontSize=8;" vertex="1" parent="1">
          <mxGeometry x="840" y="780" width="60" height="10" as="geometry" />
        </mxCell>
        <mxCell id="AjF2ncFrVsrN5MG7hm1J-32" value="20.20.1.1" style="text;html=1;whiteSpace=wrap;strokeColor=none;fillColor=none;align=center;verticalAlign=middle;rounded=0;fontSize=8;" vertex="1" parent="1">
          <mxGeometry x="1252" y="678" width="60" height="30" as="geometry" />
        </mxCell>
        <mxCell id="AjF2ncFrVsrN5MG7hm1J-33" value="20.20.2.1" style="text;html=1;whiteSpace=wrap;strokeColor=none;fillColor=none;align=center;verticalAlign=middle;rounded=0;fontSize=8;" vertex="1" parent="1">
          <mxGeometry x="1248" y="716" width="60" height="30" as="geometry" />
        </mxCell>
        <mxCell id="AjF2ncFrVsrN5MG7hm1J-34" value="20.20.1.254" style="text;html=1;whiteSpace=wrap;strokeColor=none;fillColor=none;align=center;verticalAlign=middle;rounded=0;fontSize=8;" vertex="1" parent="1">
          <mxGeometry x="1199" y="636" width="60" height="30" as="geometry" />
        </mxCell>
        <mxCell id="AjF2ncFrVsrN5MG7hm1J-35" value="20.20.2.254" style="text;html=1;whiteSpace=wrap;strokeColor=none;fillColor=none;align=center;verticalAlign=middle;rounded=0;fontSize=8;" vertex="1" parent="1">
          <mxGeometry x="1210.5" y="750" width="60" height="30" as="geometry" />
        </mxCell>
        <mxCell id="AjF2ncFrVsrN5MG7hm1J-36" value="80.80.1.1" style="text;html=1;whiteSpace=wrap;strokeColor=none;fillColor=none;align=center;verticalAlign=middle;rounded=0;fontSize=8;fontStyle=1" vertex="1" parent="1">
          <mxGeometry x="873" y="833.75" width="60" height="30" as="geometry" />
        </mxCell>
        <mxCell id="AjF2ncFrVsrN5MG7hm1J-37" value="80.80.2.1" style="text;html=1;whiteSpace=wrap;strokeColor=none;fillColor=none;align=center;verticalAlign=middle;rounded=0;fontSize=8;" vertex="1" parent="1">
          <mxGeometry x="942" y="850" width="60" height="30" as="geometry" />
        </mxCell>
        <mxCell id="AjF2ncFrVsrN5MG7hm1J-42" value="" style="edgeStyle=none;html=1;labelBackgroundColor=none;startFill=0;endArrow=none;endFill=0;strokeWidth=2;fontFamily=Verdana;fontSize=12;exitX=0.5;exitY=1;exitDx=0;exitDy=0;exitPerimeter=0;entryX=0.5;entryY=0;entryDx=0;entryDy=0;entryPerimeter=0;" edge="1" parent="1" source="hdmpvEqsEqpy68kl_CeC-1" target="AjF2ncFrVsrN5MG7hm1J-38">
          <mxGeometry relative="1" as="geometry">
            <mxPoint x="924" y="790" as="sourcePoint" />
            <mxPoint x="924" y="864" as="targetPoint" />
          </mxGeometry>
        </mxCell>
        <mxCell id="AjF2ncFrVsrN5MG7hm1J-38" value="80.80.1.254" style="text;html=1;whiteSpace=wrap;strokeColor=none;fillColor=none;align=center;verticalAlign=middle;rounded=0;fontSize=8;" vertex="1" parent="1">
          <mxGeometry x="894" y="785.5" width="60" height="30" as="geometry" />
        </mxCell>
        <mxCell id="AjF2ncFrVsrN5MG7hm1J-43" value="" style="html=1;labelBackgroundColor=none;startFill=0;endArrow=none;endFill=0;strokeWidth=2;fontFamily=Verdana;fontSize=12;exitX=0.12;exitY=0.9;exitDx=0;exitDy=0;exitPerimeter=0;entryX=0.915;entryY=0.085;entryDx=0;entryDy=0;entryPerimeter=0;" edge="1" parent="1" source="hdmpvEqsEqpy68kl_CeC-2" target="AjF2ncFrVsrN5MG7hm1J-39">
          <mxGeometry relative="1" as="geometry">
            <mxPoint x="1167" y="787" as="sourcePoint" />
            <mxPoint x="949" y="868" as="targetPoint" />
          </mxGeometry>
        </mxCell>
        <mxCell id="AjF2ncFrVsrN5MG7hm1J-39" value="80.80.2.254" style="text;html=1;whiteSpace=wrap;strokeColor=none;fillColor=none;align=center;verticalAlign=middle;rounded=0;fontSize=8;" vertex="1" parent="1">
          <mxGeometry x="1117" y="795" width="40" height="9" as="geometry" />
        </mxCell>
        <mxCell id="AjF2ncFrVsrN5MG7hm1J-44" value="90.90.1.254" style="text;html=1;whiteSpace=wrap;strokeColor=none;fillColor=none;align=center;verticalAlign=middle;rounded=0;fontSize=8;" vertex="1" parent="1">
          <mxGeometry x="933" y="909.25" width="60" height="30" as="geometry" />
        </mxCell>
        <mxCell id="AjF2ncFrVsrN5MG7hm1J-46" value="90.90.2.254" style="text;html=1;whiteSpace=wrap;strokeColor=none;fillColor=none;align=center;verticalAlign=middle;rounded=0;fontSize=8;" vertex="1" parent="1">
          <mxGeometry x="882" y="917.75" width="60" height="30" as="geometry" />
        </mxCell>
        <mxCell id="AjF2ncFrVsrN5MG7hm1J-49" value="114.114.1.254" style="text;html=1;whiteSpace=wrap;strokeColor=none;fillColor=none;align=center;verticalAlign=middle;rounded=0;fontSize=8;" vertex="1" parent="1">
          <mxGeometry x="1168.5" y="909.25" width="60" height="30" as="geometry" />
        </mxCell>
        <mxCell id="AjF2ncFrVsrN5MG7hm1J-52" style="html=1;labelBackgroundColor=none;startFill=0;endArrow=none;endFill=0;strokeWidth=2;fontFamily=Verdana;fontSize=12;entryX=0.5;entryY=0;entryDx=0;entryDy=0;exitX=0.015;exitY=0.015;exitDx=0;exitDy=0;exitPerimeter=0;rounded=1;strokeColor=light-dark(#000000,#FFFFFF);align=center;verticalAlign=middle;fontColor=default;" edge="1" parent="1" source="Fr8ylSRvn2xFsTFbEYaB-26" target="AjF2ncFrVsrN5MG7hm1J-55">
          <mxGeometry relative="1" as="geometry">
            <mxPoint x="1334" y="794" as="sourcePoint" />
            <mxPoint x="1326" y="746" as="targetPoint" />
          </mxGeometry>
        </mxCell>
        <mxCell id="AjF2ncFrVsrN5MG7hm1J-53" style="html=1;labelBackgroundColor=none;startFill=0;endArrow=none;endFill=0;strokeWidth=2;fontFamily=Verdana;fontSize=12;entryX=0.75;entryY=1;entryDx=0;entryDy=0;entryPerimeter=0;exitX=0.25;exitY=0;exitDx=0;exitDy=0;exitPerimeter=0;strokeColor=light-dark(#000000,#80FF00);" edge="1" parent="1" source="Fr8ylSRvn2xFsTFbEYaB-26" target="QZPthKrVkkydhestqFor-5">
          <mxGeometry relative="1" as="geometry">
            <mxPoint x="1333" y="789" as="sourcePoint" />
            <mxPoint x="1325" y="741" as="targetPoint" />
          </mxGeometry>
        </mxCell>
        <mxCell id="AjF2ncFrVsrN5MG7hm1J-55" value="50.50.1.254" style="text;html=1;whiteSpace=wrap;strokeColor=none;fillColor=none;align=center;verticalAlign=middle;rounded=0;fontSize=8;" vertex="1" parent="1">
          <mxGeometry x="1290" y="730" width="60" height="12" as="geometry" />
        </mxCell>
        <mxCell id="AjF2ncFrVsrN5MG7hm1J-56" value="50.50.2.254" style="text;html=1;whiteSpace=wrap;strokeColor=none;fillColor=none;align=center;verticalAlign=middle;rounded=0;fontSize=8;fontFamily=Verdana;fontColor=default;labelBackgroundColor=none;" vertex="1" parent="1">
          <mxGeometry x="1319" y="740" width="60" height="10" as="geometry" />
        </mxCell>
        <mxCell id="AjF2ncFrVsrN5MG7hm1J-57" value="50.50.3.254" style="text;html=1;whiteSpace=wrap;strokeColor=none;fillColor=none;align=center;verticalAlign=middle;rounded=0;fontSize=8;" vertex="1" parent="1">
          <mxGeometry x="1344" y="722" width="60" height="10" as="geometry" />
        </mxCell>
        <mxCell id="AjF2ncFrVsrN5MG7hm1J-63" value="" style="edgeStyle=none;html=1;labelBackgroundColor=none;startFill=0;endArrow=none;endFill=0;strokeWidth=2;fontFamily=Verdana;fontSize=12;exitX=0.16;exitY=0.55;exitDx=0;exitDy=0;exitPerimeter=0;entryX=1;entryY=0.5;entryDx=0;entryDy=0;entryPerimeter=0;" edge="1" parent="1" source="QZPthKrVkkydhestqFor-11" target="QZPthKrVkkydhestqFor-5">
          <mxGeometry relative="1" as="geometry">
            <mxPoint x="1486" y="683" as="sourcePoint" />
            <mxPoint x="1355" y="683" as="targetPoint" />
          </mxGeometry>
        </mxCell>
        <mxCell id="AjF2ncFrVsrN5MG7hm1J-10" value="&lt;pre&gt;&lt;b&gt;Stormshield&lt;/b&gt;&lt;/pre&gt;" style="text;html=1;whiteSpace=wrap;strokeColor=none;fillColor=none;align=center;verticalAlign=middle;rounded=0;rotation=0;fontColor=light-dark(#000000,#0000FF);" vertex="1" parent="1">
          <mxGeometry x="1300" y="650" width="60" height="30" as="geometry" />
        </mxCell>
        <mxCell id="AjF2ncFrVsrN5MG7hm1J-64" style="edgeStyle=none;html=1;labelBackgroundColor=none;startFill=0;endArrow=none;endFill=0;strokeWidth=2;fontFamily=Verdana;fontSize=12;exitX=0.25;exitY=1;exitDx=0;exitDy=0;exitPerimeter=0;entryX=1;entryY=0.5;entryDx=0;entryDy=0;entryPerimeter=0;rounded=1;strokeColor=light-dark(#000000,#FFFFFF);align=center;verticalAlign=middle;fontColor=default;" edge="1" parent="1" source="QZPthKrVkkydhestqFor-4" target="Fr8ylSRvn2xFsTFbEYaB-33">
          <mxGeometry relative="1" as="geometry">
            <mxPoint x="808" y="775" as="sourcePoint" />
            <mxPoint x="732" y="826" as="targetPoint" />
          </mxGeometry>
        </mxCell>
        <mxCell id="AjF2ncFrVsrN5MG7hm1J-66" style="edgeStyle=none;html=1;labelBackgroundColor=none;startFill=0;endArrow=none;endFill=0;strokeWidth=2;fontFamily=Verdana;fontSize=12;exitX=0;exitY=0.75;exitDx=0;exitDy=0;exitPerimeter=0;entryX=0.5;entryY=0;entryDx=0;entryDy=0;entryPerimeter=0;strokeColor=light-dark(#000000,#FF3399);" edge="1" parent="1" source="QZPthKrVkkydhestqFor-4" target="Fr8ylSRvn2xFsTFbEYaB-33">
          <mxGeometry relative="1" as="geometry">
            <mxPoint x="746" y="717" as="sourcePoint" />
            <mxPoint x="670" y="768" as="targetPoint" />
          </mxGeometry>
        </mxCell>
        <mxCell id="AjF2ncFrVsrN5MG7hm1J-67" value="40.40.2.254" style="text;html=1;whiteSpace=wrap;strokeColor=none;fillColor=none;align=center;verticalAlign=middle;rounded=0;fontSize=8;" vertex="1" parent="1">
          <mxGeometry x="741" y="716" width="60" height="30" as="geometry" />
        </mxCell>
        <mxCell id="AjF2ncFrVsrN5MG7hm1J-69" value="40.40.1.254" style="text;html=1;whiteSpace=wrap;strokeColor=none;fillColor=none;align=center;verticalAlign=middle;rounded=0;fontSize=8;" vertex="1" parent="1">
          <mxGeometry x="750" y="730" width="60" height="30" as="geometry" />
        </mxCell>
        <mxCell id="AjF2ncFrVsrN5MG7hm1J-70" value="40.40.3.254" style="text;html=1;whiteSpace=wrap;strokeColor=none;fillColor=none;align=center;verticalAlign=middle;rounded=0;fontSize=8;" vertex="1" parent="1">
          <mxGeometry x="720" y="702" width="60" height="30" as="geometry" />
        </mxCell>
        <mxCell id="AjF2ncFrVsrN5MG7hm1J-74" value="70.70.1.254" style="text;html=1;whiteSpace=wrap;strokeColor=none;fillColor=none;align=center;verticalAlign=middle;rounded=0;fontSize=8;" vertex="1" parent="1">
          <mxGeometry x="852" y="530" width="60" height="30" as="geometry" />
        </mxCell>
        <mxCell id="AjF2ncFrVsrN5MG7hm1J-75" value="100.100.1.254" style="text;html=1;whiteSpace=wrap;strokeColor=none;fillColor=none;align=center;verticalAlign=middle;rounded=0;fontSize=8;" vertex="1" parent="1">
          <mxGeometry x="1131" y="480" width="60" height="30" as="geometry" />
        </mxCell>
        <mxCell id="AjF2ncFrVsrN5MG7hm1J-76" value="100.100.2.201" style="text;html=1;whiteSpace=wrap;strokeColor=none;fillColor=none;align=center;verticalAlign=middle;rounded=0;fontSize=8;" vertex="1" parent="1">
          <mxGeometry x="1190" y="480" width="60" height="30" as="geometry" />
        </mxCell>
        <mxCell id="AjF2ncFrVsrN5MG7hm1J-77" value="100.100.2.200" style="text;html=1;whiteSpace=wrap;strokeColor=none;fillColor=none;align=center;verticalAlign=middle;rounded=0;fontSize=8;" vertex="1" parent="1">
          <mxGeometry x="1259" y="361" width="60" height="30" as="geometry" />
        </mxCell>
        <mxCell id="AjF2ncFrVsrN5MG7hm1J-78" value="111.111.1.1" style="text;html=1;whiteSpace=wrap;strokeColor=none;fillColor=none;align=center;verticalAlign=middle;rounded=0;fontSize=8;" vertex="1" parent="1">
          <mxGeometry x="1146" y="550" width="60" height="30" as="geometry" />
        </mxCell>
        <mxCell id="AjF2ncFrVsrN5MG7hm1J-79" value="111.111.1.254" style="text;html=1;whiteSpace=wrap;strokeColor=none;fillColor=none;align=center;verticalAlign=middle;rounded=0;fontSize=8;" vertex="1" parent="1">
          <mxGeometry x="1148" y="606" width="60" height="30" as="geometry" />
        </mxCell>
        <mxCell id="AjF2ncFrVsrN5MG7hm1J-80" value="111.111.2.1" style="text;html=1;whiteSpace=wrap;strokeColor=none;fillColor=none;align=center;verticalAlign=middle;rounded=0;fontSize=8;" vertex="1" parent="1">
          <mxGeometry x="1097" y="530" width="60" height="30" as="geometry" />
        </mxCell>
        <mxCell id="AjF2ncFrVsrN5MG7hm1J-81" value="111.111.2.254" style="text;html=1;whiteSpace=wrap;strokeColor=none;fillColor=none;align=center;verticalAlign=middle;rounded=0;fontSize=8;" vertex="1" parent="1">
          <mxGeometry x="951" y="610" width="60" height="30" as="geometry" />
        </mxCell>
        <mxCell id="AjF2ncFrVsrN5MG7hm1J-82" value="60.60.1.1" style="text;html=1;whiteSpace=wrap;strokeColor=none;fillColor=none;align=center;verticalAlign=middle;rounded=0;fontSize=8;" vertex="1" parent="1">
          <mxGeometry x="900" y="570" width="60" height="10" as="geometry" />
        </mxCell>
        <mxCell id="AjF2ncFrVsrN5MG7hm1J-83" value="60.60.2.1" style="text;html=1;whiteSpace=wrap;strokeColor=none;fillColor=none;align=center;verticalAlign=middle;rounded=0;fontSize=8;" vertex="1" parent="1">
          <mxGeometry x="942" y="540" width="60" height="30" as="geometry" />
        </mxCell>
        <mxCell id="AjF2ncFrVsrN5MG7hm1J-84" value="60.60.1.254" style="text;html=1;whiteSpace=wrap;strokeColor=none;fillColor=none;align=center;verticalAlign=middle;rounded=0;fontSize=8;" vertex="1" parent="1">
          <mxGeometry x="900" y="620" width="60" height="10" as="geometry" />
        </mxCell>
        <mxCell id="AjF2ncFrVsrN5MG7hm1J-85" value="60.60.2.254" style="text;html=1;whiteSpace=wrap;strokeColor=none;fillColor=none;align=center;verticalAlign=middle;rounded=0;fontSize=8;" vertex="1" parent="1">
          <mxGeometry x="1097" y="612" width="60" height="30" as="geometry" />
        </mxCell>
        <mxCell id="AjF2ncFrVsrN5MG7hm1J-86" value="20.20.3.1" style="text;html=1;whiteSpace=wrap;strokeColor=none;fillColor=none;align=center;verticalAlign=middle;rounded=0;fontSize=8;" vertex="1" parent="1">
          <mxGeometry x="1252" y="990" width="60" height="30" as="geometry" />
        </mxCell>
        <mxCell id="AjF2ncFrVsrN5MG7hm1J-87" value="20.20.3.254" style="text;html=1;whiteSpace=wrap;strokeColor=none;fillColor=none;align=center;verticalAlign=middle;rounded=0;fontSize=8;" vertex="1" parent="1">
          <mxGeometry x="1199" y="779" width="60" height="30" as="geometry" />
        </mxCell>
        <mxCell id="AjF2ncFrVsrN5MG7hm1J-94" value="&lt;pre&gt;&lt;b&gt;SITE1&lt;/b&gt;&lt;/pre&gt;" style="text;html=1;whiteSpace=wrap;strokeColor=none;fillColor=none;align=center;verticalAlign=middle;rounded=0;rotation=0;fontColor=light-dark(#000000,#808080);fontSize=19;" vertex="1" parent="1">
          <mxGeometry x="670" y="610" width="60" height="30" as="geometry" />
        </mxCell>
        <mxCell id="AjF2ncFrVsrN5MG7hm1J-95" value="&lt;pre&gt;&lt;b&gt;SITE2&lt;/b&gt;&lt;/pre&gt;" style="text;html=1;whiteSpace=wrap;strokeColor=none;fillColor=none;align=center;verticalAlign=middle;rounded=0;rotation=0;fontColor=light-dark(#000000,#808080);fontSize=19;" vertex="1" parent="1">
          <mxGeometry x="1386" y="610" width="60" height="30" as="geometry" />
        </mxCell>
        <mxCell id="AjF2ncFrVsrN5MG7hm1J-96" value="&lt;pre&gt;&lt;b&gt;SITE3&lt;/b&gt;&lt;/pre&gt;" style="text;html=1;whiteSpace=wrap;strokeColor=none;fillColor=none;align=center;verticalAlign=middle;rounded=0;rotation=0;fontColor=light-dark(#000000,#808080);fontSize=19;" vertex="1" parent="1">
          <mxGeometry x="810" y="440.5" width="60" height="30" as="geometry" />
        </mxCell>
        <mxCell id="AjF2ncFrVsrN5MG7hm1J-97" value="&lt;pre&gt;&lt;b&gt;SITE4&lt;/b&gt;&lt;/pre&gt;" style="text;html=1;whiteSpace=wrap;strokeColor=none;fillColor=none;align=center;verticalAlign=middle;rounded=0;rotation=0;fontColor=light-dark(#000000,#808080);fontSize=19;" vertex="1" parent="1">
          <mxGeometry x="1180" y="270" width="60" height="30" as="geometry" />
        </mxCell>
        <mxCell id="AjF2ncFrVsrN5MG7hm1J-98" value="&lt;pre&gt;&lt;b&gt;SITE5&lt;/b&gt;&lt;/pre&gt;" style="text;html=1;whiteSpace=wrap;strokeColor=none;fillColor=none;align=center;verticalAlign=middle;rounded=0;rotation=0;fontColor=light-dark(#000000,#808080);fontSize=19;" vertex="1" parent="1">
          <mxGeometry x="1157" y="1090" width="60" height="30" as="geometry" />
        </mxCell>
        <mxCell id="AjF2ncFrVsrN5MG7hm1J-100" value="&lt;pre&gt;&lt;b&gt;SITE6&lt;/b&gt;&lt;/pre&gt;" style="text;html=1;whiteSpace=wrap;strokeColor=none;fillColor=none;align=center;verticalAlign=middle;rounded=0;rotation=0;fontColor=light-dark(#000000,#808080);fontSize=19;" vertex="1" parent="1">
          <mxGeometry x="894" y="1100" width="60" height="30" as="geometry" />
        </mxCell>
        <mxCell id="AjF2ncFrVsrN5MG7hm1J-101" style="edgeStyle=none;html=1;labelBackgroundColor=none;startFill=0;endArrow=none;endFill=0;strokeWidth=2;fontFamily=Verdana;fontSize=12;exitX=0.75;exitY=0;exitDx=0;exitDy=0;entryX=1;entryY=0.5;entryDx=0;entryDy=0;entryPerimeter=0;shape=link;strokeColor=light-dark(#000000,#FF0080);" edge="1" parent="1">
          <mxGeometry relative="1" as="geometry">
            <mxPoint x="1297" y="699" as="sourcePoint" />
            <mxPoint x="832" y="696" as="targetPoint" />
          </mxGeometry>
        </mxCell>
        <mxCell id="AjF2ncFrVsrN5MG7hm1J-104" value="IPsec" style="edgeLabel;html=1;align=center;verticalAlign=middle;resizable=0;points=[];" vertex="1" connectable="0" parent="AjF2ncFrVsrN5MG7hm1J-101">
          <mxGeometry x="-0.409" y="-3" relative="1" as="geometry">
            <mxPoint as="offset" />
          </mxGeometry>
        </mxCell>
        <mxCell id="AjF2ncFrVsrN5MG7hm1J-102" style="edgeStyle=none;html=1;labelBackgroundColor=none;startFill=0;endArrow=none;endFill=0;strokeWidth=2;fontFamily=Verdana;fontSize=12;entryX=1;entryY=0.75;entryDx=0;entryDy=0;entryPerimeter=0;shape=link;strokeColor=light-dark(#000000,#33FF33);exitX=0;exitY=0.75;exitDx=0;exitDy=0;exitPerimeter=0;" edge="1" parent="1" source="QZPthKrVkkydhestqFor-5" target="QZPthKrVkkydhestqFor-4">
          <mxGeometry relative="1" as="geometry">
            <mxPoint x="1170" y="725" as="sourcePoint" />
            <mxPoint x="847" y="721.5" as="targetPoint" />
          </mxGeometry>
        </mxCell>
        <mxCell id="AjF2ncFrVsrN5MG7hm1J-103" value="GRE" style="edgeLabel;html=1;align=center;verticalAlign=middle;resizable=0;points=[];" vertex="1" connectable="0" parent="AjF2ncFrVsrN5MG7hm1J-102">
          <mxGeometry x="-0.353" y="-3" relative="1" as="geometry">
            <mxPoint as="offset" />
          </mxGeometry>
        </mxCell>
        <mxCell id="AjF2ncFrVsrN5MG7hm1J-105" value="RIPv2" style="text;html=1;whiteSpace=wrap;strokeColor=none;fillColor=none;align=center;verticalAlign=middle;rounded=0;fontSize=8;" vertex="1" parent="1">
          <mxGeometry x="909" y="770" width="30" height="20" as="geometry" />
        </mxCell>
        <mxCell id="AjF2ncFrVsrN5MG7hm1J-106" value="RIPv2" style="text;html=1;whiteSpace=wrap;strokeColor=none;fillColor=none;align=center;verticalAlign=middle;rounded=0;fontSize=8;rotation=5;" vertex="1" parent="1">
          <mxGeometry x="912" y="642" width="30" height="20" as="geometry" />
        </mxCell>
        <mxCell id="AjF2ncFrVsrN5MG7hm1J-107" value="RIPv2" style="text;html=1;whiteSpace=wrap;strokeColor=none;fillColor=none;align=center;verticalAlign=middle;rounded=0;fontSize=8;" vertex="1" parent="1">
          <mxGeometry x="1165" y="642" width="30" height="20" as="geometry" />
        </mxCell>
        <mxCell id="AjF2ncFrVsrN5MG7hm1J-108" value="RIPv2" style="text;html=1;whiteSpace=wrap;strokeColor=none;fillColor=none;align=center;verticalAlign=middle;rounded=0;fontSize=8;" vertex="1" parent="1">
          <mxGeometry x="1178" y="775" width="30" height="20" as="geometry" />
        </mxCell>
        <mxCell id="AjF2ncFrVsrN5MG7hm1J-112" value="&lt;div&gt;VLAN&lt;/div&gt;USER" style="text;html=1;whiteSpace=wrap;strokeColor=none;fillColor=none;align=center;verticalAlign=middle;rounded=0;fontSize=8;" vertex="1" parent="1">
          <mxGeometry x="1108.5" y="391" width="60" height="30" as="geometry" />
        </mxCell>
        <mxCell id="AjF2ncFrVsrN5MG7hm1J-113" value="VLAN&lt;div&gt;Management&lt;/div&gt;&lt;div&gt;FTD&lt;/div&gt;" style="text;html=1;whiteSpace=wrap;strokeColor=none;fillColor=none;align=center;verticalAlign=middle;rounded=0;fontSize=8;" vertex="1" parent="1">
          <mxGeometry x="1268" y="391" width="60" height="30" as="geometry" />
        </mxCell>
        <mxCell id="AjF2ncFrVsrN5MG7hm1J-115" value="&lt;div&gt;VLAN&lt;/div&gt;USER" style="text;html=1;whiteSpace=wrap;strokeColor=none;fillColor=none;align=center;verticalAlign=middle;rounded=0;fontSize=8;" vertex="1" parent="1">
          <mxGeometry x="1344" y="930" width="60" height="30" as="geometry" />
        </mxCell>
        <mxCell id="AjF2ncFrVsrN5MG7hm1J-116" value="&lt;div&gt;VLAN&lt;/div&gt;USER" style="text;html=1;whiteSpace=wrap;strokeColor=none;fillColor=none;align=center;verticalAlign=middle;rounded=0;fontSize=8;" vertex="1" parent="1">
          <mxGeometry x="715.5" y="939.25" width="60" height="30" as="geometry" />
        </mxCell>
        <mxCell id="AjF2ncFrVsrN5MG7hm1J-121" value="&lt;div&gt;VLAN&lt;/div&gt;GRE" style="text;html=1;whiteSpace=wrap;strokeColor=none;fillColor=none;align=center;verticalAlign=middle;rounded=0;fontSize=8;" vertex="1" parent="1">
          <mxGeometry x="655.5" y="939.25" width="60" height="30" as="geometry" />
        </mxCell>
        <mxCell id="AjF2ncFrVsrN5MG7hm1J-122" value="&lt;div&gt;VLAN&lt;/div&gt;IPsec" style="text;html=1;whiteSpace=wrap;strokeColor=none;fillColor=none;align=center;verticalAlign=middle;rounded=0;fontSize=8;" vertex="1" parent="1">
          <mxGeometry x="586" y="941.5" width="60" height="30" as="geometry" />
        </mxCell>
        <mxCell id="AjF2ncFrVsrN5MG7hm1J-126" value="&lt;div&gt;VLAN&lt;/div&gt;GRE" style="text;html=1;whiteSpace=wrap;strokeColor=none;fillColor=none;align=center;verticalAlign=middle;rounded=0;fontSize=8;" vertex="1" parent="1">
          <mxGeometry x="1415" y="931.88" width="60" height="30" as="geometry" />
        </mxCell>
        <mxCell id="AjF2ncFrVsrN5MG7hm1J-127" value="&lt;div&gt;VLAN&lt;/div&gt;IPsec" style="text;html=1;whiteSpace=wrap;strokeColor=none;fillColor=none;align=center;verticalAlign=middle;rounded=0;fontSize=8;" vertex="1" parent="1">
          <mxGeometry x="1471" y="931.88" width="60" height="30" as="geometry" />
        </mxCell>
        <mxCell id="AjF2ncFrVsrN5MG7hm1J-129" value="&lt;div&gt;VLAN&lt;/div&gt;USER" style="text;html=1;whiteSpace=wrap;strokeColor=none;fillColor=none;align=center;verticalAlign=middle;rounded=0;fontSize=8;" vertex="1" parent="1">
          <mxGeometry x="717.5" y="570" width="60" height="30" as="geometry" />
        </mxCell>
        <mxCell id="AjF2ncFrVsrN5MG7hm1J-130" value="&lt;div&gt;VLAN&lt;/div&gt;USER" style="text;html=1;whiteSpace=wrap;strokeColor=none;fillColor=none;align=center;verticalAlign=middle;rounded=0;fontSize=8;" vertex="1" parent="1">
          <mxGeometry x="1159.5" y="1050" width="60" height="30" as="geometry" />
        </mxCell>
        <mxCell id="AjF2ncFrVsrN5MG7hm1J-135" value="&lt;div&gt;VLAN&lt;/div&gt;USER" style="text;html=1;whiteSpace=wrap;strokeColor=none;fillColor=none;align=center;verticalAlign=middle;rounded=0;fontSize=8;" vertex="1" parent="1">
          <mxGeometry x="940" y="1055" width="60" height="30" as="geometry" />
        </mxCell>
        <mxCell id="AjF2ncFrVsrN5MG7hm1J-136" value="&lt;div&gt;VLAN&lt;/div&gt;SERVER" style="text;html=1;whiteSpace=wrap;strokeColor=none;fillColor=none;align=center;verticalAlign=middle;rounded=0;fontSize=8;" vertex="1" parent="1">
          <mxGeometry x="865" y="1060" width="60" height="30" as="geometry" />
        </mxCell>
        <mxCell id="AjF2ncFrVsrN5MG7hm1J-139" style="edgeStyle=orthogonalEdgeStyle;rounded=0;orthogonalLoop=1;jettySize=auto;html=1;exitX=0.5;exitY=1;exitDx=0;exitDy=0;" edge="1" parent="1" source="AjF2ncFrVsrN5MG7hm1J-30" target="AjF2ncFrVsrN5MG7hm1J-30">
          <mxGeometry relative="1" as="geometry" />
        </mxCell>
      </root>
    </mxGraphModel>
  </diagram>
</mxfile>
